<svg width="6" height="6" viewBox="0 0 6 6" fill="none" xmlns="http://www.w3.org/2000/svg">
<path d="M2.6582 0C4.12625 0 5.31713 1.19021 5.31738 2.6582C5.31738 4.12641 4.12641 5.31738 2.6582 5.31738C1.19013 5.31723 0 4.12631 0 2.6582C0.000249865 1.19031 1.19028 0.000154712 2.6582 0ZM1.95801 1.17578C1.90055 1.1571 1.83894 1.16408 1.78809 1.19141L1.7832 1.19434C1.73214 1.22355 1.69302 1.27355 1.67969 1.33496C1.47299 2.28495 1.48832 2.93771 1.75684 3.35937C2.02155 3.77468 2.49554 3.92998 3.12598 3.94629L3.23633 4.13574C3.23883 4.14007 3.24147 4.14446 3.24414 4.14844L3.33691 4.31055L3.7041 4.09863L3.61133 3.93945C3.60891 3.93436 3.60642 3.92886 3.60352 3.92383L3.49414 3.73437C3.79533 3.17998 3.89752 2.69099 3.66992 2.25391C3.43894 1.8111 2.88251 1.4715 1.95801 1.17578Z" fill="#450F0F"/>
</svg>
