<svg width="6" height="6" viewBox="0 0 6 6" fill="none" xmlns="http://www.w3.org/2000/svg">
<path d="M2.6582 0C4.12638 0 5.31637 1.19003 5.31641 2.6582C5.31641 4.12641 4.12641 5.31641 2.6582 5.31641C1.19007 5.31633 0 4.12636 0 2.6582C3.73141e-05 1.19008 1.19009 7.79845e-05 2.6582 0ZM2.43945 1.05664L2.4668 1.41895C2.44144 1.42197 2.41617 1.42535 2.3916 1.42969C2.3105 1.44404 2.23464 1.46547 2.16504 1.49414C2.09615 1.52224 2.03349 1.55682 1.97754 1.59863C1.92191 1.64061 1.87456 1.68986 1.83496 1.74512C1.7959 1.7998 1.76472 1.86077 1.74316 1.92871C1.72211 1.99674 1.71191 2.07156 1.71191 2.15234C1.71192 2.24163 1.72494 2.31895 1.75 2.38379C1.77505 2.44795 1.80903 2.5032 1.85156 2.54883C1.8941 2.59385 1.94352 2.63144 1.99902 2.66113C2.05489 2.69018 2.11349 2.71389 2.1748 2.73242C2.23646 2.75102 2.29962 2.76618 2.36328 2.77734C2.42685 2.78796 2.48735 2.7977 2.54492 2.80566L2.64648 2.82031C2.69411 2.82722 2.73869 2.83444 2.7793 2.84082C2.81975 2.84718 2.85618 2.85436 2.88867 2.8623C2.92125 2.87027 2.95005 2.87902 2.97461 2.88965C2.99911 2.90025 3.01961 2.91335 3.03613 2.92871C3.05318 2.94359 3.0662 2.96214 3.07422 2.9834C3.08263 3.00404 3.08691 3.02911 3.08691 3.05762C3.08684 3.10037 3.07557 3.13812 3.05371 3.1709C3.03216 3.20331 3.00195 3.23061 2.96387 3.25293C2.92627 3.27472 2.88171 3.29157 2.83008 3.30273C2.77848 3.31388 2.72222 3.31934 2.66211 3.31934C2.59171 3.31931 2.52862 3.31168 2.47266 3.29687C2.41651 3.28146 2.3682 3.2597 2.3291 3.23047C2.29003 3.20125 2.2603 3.16501 2.23926 3.12305C2.21878 3.08111 2.20801 3.03307 2.20801 2.97949L1.67871 2.97949C1.67871 3.10493 1.70055 3.21844 1.74316 3.31836C1.78575 3.41748 1.84863 3.50135 1.93164 3.57031C2.01486 3.63941 2.11792 3.69282 2.24023 3.72949C2.30964 3.74989 2.38539 3.76164 2.4668 3.77051L2.43945 4.13477H2.87793L2.84961 3.77246C2.92762 3.76452 3.00108 3.75381 3.06934 3.73535C3.18965 3.70293 3.29176 3.65451 3.37598 3.5918C3.46016 3.52856 3.52521 3.45085 3.57031 3.3584C3.61534 3.26549 3.63767 3.15901 3.6377 3.03906C3.6377 2.94665 3.62514 2.86674 3.59961 2.7998C3.57404 2.73284 3.53921 2.67523 3.49609 2.62793C3.45358 2.58029 3.40364 2.54148 3.34668 2.51074C3.29003 2.47938 3.23016 2.45326 3.16699 2.43359C3.10444 2.41344 3.04064 2.39742 2.97559 2.38574L2.71191 2.3418C2.66153 2.33386 2.61566 2.32622 2.57422 2.31934C2.53272 2.31244 2.49494 2.3058 2.46191 2.29785C2.42901 2.28939 2.39997 2.27957 2.375 2.26953C2.35044 2.2589 2.32904 2.24677 2.3125 2.23242C2.29647 2.21807 2.28438 2.20032 2.27637 2.18066C2.26847 2.1611 2.26465 2.1377 2.26465 2.11133C2.26469 2.08545 2.26936 2.06171 2.27832 2.04004C2.28785 2.01825 2.30084 1.99801 2.31738 1.98047C2.33388 1.9625 2.354 1.94682 2.37695 1.93359C2.40043 1.91985 2.42615 1.90841 2.4541 1.89941C2.48217 1.88985 2.51189 1.88316 2.54297 1.87891C2.57452 1.87413 2.60707 1.87207 2.64063 1.87207C2.70128 1.87207 2.75654 1.87867 2.80566 1.89355C2.85466 1.90788 2.89614 1.92948 2.93066 1.95703C2.96525 1.98467 2.99219 2.01829 3.01074 2.05762C3.02972 2.09686 3.03904 2.14113 3.03906 2.19043H3.56836C3.56834 2.06838 3.54786 1.95892 3.50586 1.8623C3.46375 1.76557 3.40245 1.68318 3.32324 1.61621C3.24414 1.54888 3.14774 1.49747 3.03418 1.46191C2.9762 1.4435 2.91429 1.42895 2.84863 1.41992L2.87793 1.05664H2.43945Z" fill="#450F0F"/>
</svg>
