<svg width="6" height="6" viewBox="0 0 6 6" fill="none" xmlns="http://www.w3.org/2000/svg">
<path d="M2.6582 0C4.12634 0 5.31629 1.1901 5.31641 2.6582C5.31641 4.12641 4.12641 5.31641 2.6582 5.31641C1.1901 5.31629 0 4.12634 0 2.6582C0.000116855 1.19017 1.19017 0.000116856 2.6582 0ZM2.66211 1.00879C2.38929 1.00887 2.12752 1.11767 1.93457 1.31055C1.79661 1.44865 1.7019 1.62223 1.65918 1.80957H1.19141L1.19141 2.25098H1.63281L1.63281 3.50098H1.19141L1.19141 3.94238L4.20605 3.94238V3.50098H3.69141L3.69141 2.25098H4.20605V1.80957H3.66406C3.62131 1.62219 3.52769 1.44865 3.38965 1.31055C3.19666 1.1176 2.93501 1.00884 2.66211 1.00879ZM2.47852 2.25098L2.47852 3.50098H2.07324L2.07324 2.25098H2.47852ZM3.25 2.25098L3.25 3.50098H2.91895L2.91895 2.25098H3.25Z" fill="#450F0F"/>
</svg>
