<svg width="186" height="67" viewBox="0 0 186 67" fill="none" xmlns="http://www.w3.org/2000/svg">
<path d="M120.124 27.4207C120.338 26.8972 120.588 26.5047 120.874 26.243C121.159 25.9812 121.409 25.8504 121.623 25.8504C121.956 25.8504 122.194 26.0526 122.337 26.4571C122.48 26.8378 122.408 27.4088 122.123 28.1701C121.718 29.0981 121.195 29.907 120.552 30.597C119.91 31.287 119.137 31.8104 118.233 32.1673H118.268C117.436 32.5242 116.413 32.7026 115.199 32.7026C113.034 32.7026 111.357 32.0007 110.167 30.597V30.6327C108.954 29.2289 108.204 27.3255 107.919 24.9225C107.871 24.518 107.835 24.1016 107.812 23.6734C107.788 23.2213 107.776 22.7693 107.776 22.3172C107.776 21.4369 107.812 20.5328 107.883 19.6049C107.978 18.6532 108.097 17.6777 108.24 16.6784C108.502 15.1795 108.823 13.7638 109.203 12.4314C109.584 11.0753 110.048 9.79046 110.595 8.57704C111.642 6.24538 112.986 4.40147 114.628 3.0453C115.437 2.35531 116.317 1.84377 117.269 1.51068C118.221 1.17759 119.232 1.01104 120.303 1.01104C120.969 1.01104 121.552 1.08242 122.051 1.22517C122.575 1.34413 123.074 1.51068 123.55 1.72481C123.907 1.93895 124.24 2.22446 124.55 2.58134C124.859 2.91444 125.121 3.29512 125.335 3.72338C125.573 4.15165 125.751 4.6156 125.87 5.11524C126.013 5.59109 126.084 6.06694 126.084 6.54279C126.084 7.04243 126.013 7.48259 125.87 7.86327C125.727 8.24395 125.525 8.56515 125.263 8.82687C125.025 9.06479 124.752 9.24323 124.443 9.3622C124.157 9.48116 123.86 9.54064 123.55 9.54064C122.955 9.54064 122.432 9.31461 121.98 8.86255C121.528 8.4105 121.326 7.73241 121.373 6.8283C121.397 6.66175 121.409 6.48331 121.409 6.29297C121.433 6.07883 121.445 5.8766 121.445 5.68626C121.445 5.2342 121.409 4.77025 121.338 4.2944C121.266 3.81855 121.135 3.42597 120.945 3.11667C120.636 2.66462 120.196 2.43859 119.625 2.43859C118.792 2.43859 118.042 2.90254 117.376 3.83045C116.995 4.3063 116.639 4.9368 116.305 5.72195C115.996 6.48331 115.675 7.39932 115.342 8.46998C115.009 9.54064 114.699 10.766 114.414 12.1459C114.128 13.5259 113.843 15.1081 113.557 16.8925C113.248 18.6532 113.022 20.2354 112.879 21.6391C112.76 23.0191 112.701 24.2444 112.701 25.3151C112.701 26.3381 112.76 27.2422 112.879 28.0274C113.022 28.7887 113.224 29.4074 113.486 29.8832C113.748 30.3115 114.057 30.6446 114.414 30.8825C114.795 31.1204 115.235 31.2394 115.734 31.2394C116.305 31.2394 116.829 31.1085 117.305 30.8468C117.947 30.5375 118.506 30.0616 118.982 29.4193C119.482 28.7769 119.862 28.1107 120.124 27.4207Z" fill="#FDFAE5"/>
<path d="M136.373 8.75549C137.373 8.75549 138.11 9.08858 138.586 9.75477C139.062 10.3972 139.3 11.218 139.3 12.2173C139.3 12.6931 139.24 13.169 139.121 13.6448C138.955 14.4062 138.634 14.9772 138.158 15.3579C137.706 15.7148 137.23 15.8932 136.73 15.8932C136.183 15.8932 135.695 15.7148 135.267 15.3579C134.863 14.9772 134.648 14.4181 134.625 13.6805V13.3236C134.625 13.1571 134.625 12.9787 134.625 12.7883C134.625 12.5742 134.613 12.3838 134.589 12.2173C134.565 12.0507 134.518 11.908 134.446 11.789C134.399 11.6701 134.327 11.6106 134.232 11.6106C134.066 11.6106 133.899 11.682 133.732 11.8247H133.768C133.554 12.0388 133.352 12.3719 133.161 12.824C133.019 13.0857 132.888 13.3712 132.769 13.6805C132.65 13.9898 132.555 14.3229 132.483 14.6798C132.412 14.8939 132.329 15.227 132.234 15.6791C132.138 16.1074 132.043 16.5832 131.948 17.1066L131.627 19.0695C131.484 19.9023 131.365 20.6041 131.27 21.1752C131.199 21.7462 131.127 22.2339 131.056 22.6384C131.008 23.0429 130.961 23.3879 130.913 23.6734C130.865 23.9589 130.818 24.2325 130.77 24.4942C130.723 24.7559 130.675 25.0295 130.628 25.3151C130.58 25.5768 130.52 25.9099 130.449 26.3143C130.402 26.7188 130.33 27.2066 130.235 27.7776C130.164 28.3486 130.068 29.0505 129.949 29.8832V29.8475C129.878 30.2996 129.854 30.5375 129.878 30.5613C129.973 30.7992 130.104 31.0014 130.271 31.168C130.318 31.2156 130.366 31.2751 130.413 31.3464C130.485 31.4178 130.568 31.5249 130.663 31.6676C130.782 31.858 130.794 32.0364 130.699 32.203C130.628 32.3695 130.497 32.4528 130.306 32.4528H124.025C123.811 32.4528 123.656 32.3576 123.561 32.1673C123.49 31.9769 123.514 31.7985 123.633 31.632C123.847 31.394 124.108 31.168 124.418 30.9539C124.513 30.8587 124.596 30.7873 124.668 30.7397C124.763 30.6921 124.834 30.6446 124.882 30.597C124.977 30.4066 125.06 30.1092 125.131 29.7048L126.845 18.9268V18.9625C126.963 18.2011 127.047 17.5587 127.094 17.0353C127.166 16.488 127.201 16.0479 127.201 15.7148C127.201 15.1676 127.118 14.7393 126.952 14.43C126.785 14.1207 126.535 13.8114 126.202 13.5021H126.166C126.166 13.4545 126.155 13.395 126.131 13.3236C126.107 13.2523 126.095 13.1928 126.095 13.1452V13.0024C126.095 12.9549 126.095 12.9073 126.095 12.8597C126.119 12.7883 126.143 12.705 126.166 12.6099C126.166 12.5623 126.19 12.5028 126.238 12.4314C126.285 12.36 126.333 12.3125 126.381 12.2887L131.877 9.25513H132.626C132.769 9.25513 132.888 9.31461 132.983 9.43357C133.102 9.52874 133.15 9.6596 133.126 9.82615L132.983 10.5756C133.221 10.2901 133.447 10.0403 133.661 9.82615C133.899 9.61202 134.149 9.42168 134.411 9.25513C135.005 8.92203 135.66 8.75549 136.373 8.75549Z" fill="#FDFAE5"/>
<path d="M147.696 29.0624C147.719 29.1337 147.719 29.2289 147.696 29.3479C147.672 29.443 147.636 29.5144 147.589 29.562C147.398 29.7999 147.196 30.0379 146.982 30.2758C146.768 30.4899 146.566 30.704 146.375 30.9182H146.411C146.006 31.3464 145.495 31.739 144.876 32.0959C144.615 32.2625 144.329 32.3814 144.02 32.4528C143.734 32.5242 143.425 32.5836 143.092 32.6312C142.664 32.6788 142.2 32.6312 141.7 32.4885C141.224 32.3219 140.855 32.0721 140.594 31.739C140.356 31.4059 140.177 30.9539 140.058 30.3828C139.963 29.788 139.939 29.1218 139.987 28.3843C140.034 27.385 140.13 26.3738 140.272 25.3507C140.415 24.3039 140.582 23.2808 140.772 22.2815C140.843 21.877 140.903 21.4964 140.95 21.1395C141.022 20.7588 141.093 20.39 141.165 20.0331L141.343 18.9268V18.9625C141.557 17.4635 141.664 16.381 141.664 15.7148C141.664 15.1676 141.581 14.7393 141.414 14.43C141.272 14.1207 141.034 13.8114 140.701 13.5021L140.629 13.395C140.605 13.3474 140.594 13.2761 140.594 13.1809C140.594 13.1095 140.594 13.0262 140.594 12.9311C140.594 12.8359 140.617 12.7288 140.665 12.6099C140.665 12.5623 140.689 12.5028 140.736 12.4314C140.784 12.36 140.832 12.3125 140.879 12.2887L142.664 11.2894C142.783 10.5994 142.866 10.2425 142.913 10.2187C142.961 10.1949 142.961 10.5042 142.913 11.1466L146.339 9.25513H147.125C147.267 9.25513 147.386 9.31461 147.482 9.43357C147.6 9.52874 147.636 9.6596 147.589 9.82615C147.47 10.6351 147.363 11.3132 147.267 11.8604C147.172 12.4076 147.089 12.8835 147.018 13.288C146.97 13.6686 146.922 14.0017 146.875 14.2872C146.827 14.5727 146.792 14.8464 146.768 15.1081C146.72 15.3698 146.673 15.6434 146.625 15.9289C146.601 16.2144 146.554 16.5713 146.482 16.9996C146.411 17.4041 146.328 17.8918 146.232 18.4628C146.137 19.0338 146.018 19.7476 145.876 20.6041L145.733 21.7819C145.542 22.8763 145.352 23.9827 145.162 25.1009C144.995 26.2192 144.852 27.2779 144.733 28.2772C144.638 28.9434 144.674 29.4668 144.841 29.8475C144.912 30.0141 144.983 30.0973 145.055 30.0973C145.174 30.0735 145.305 30.0379 145.447 29.9903C145.614 29.9189 145.757 29.7999 145.876 29.6334H145.84C146.149 29.3241 146.458 28.9553 146.768 28.527C146.911 28.3605 147.065 28.301 147.232 28.3486C147.422 28.3724 147.541 28.5032 147.589 28.7412L147.696 29.0624ZM145.162 7.39932C144.353 7.39932 143.77 7.11381 143.413 6.54279C143.056 5.94798 142.878 5.26989 142.878 4.50853C142.878 4.05647 142.949 3.59252 143.092 3.11667C143.235 2.61703 143.437 2.17687 143.699 1.79619C143.984 1.41551 144.317 1.10621 144.698 0.868283C145.102 0.606566 145.566 0.475708 146.09 0.475708C146.899 0.475708 147.482 0.761218 147.838 1.33224C148.219 1.87946 148.409 2.53376 148.409 3.29512C148.409 3.77096 148.338 4.25871 148.195 4.75835C148.053 5.2342 147.838 5.67436 147.553 6.07884C147.267 6.45952 146.922 6.78071 146.518 7.04243C146.113 7.28035 145.661 7.39932 145.162 7.39932Z" fill="#FDFAE5"/>
<path d="M159.655 19.8904C160.06 20.39 160.357 20.9848 160.547 21.6748C160.738 22.341 160.833 23.031 160.833 23.7447C160.833 24.7678 160.655 25.8147 160.298 26.8854C159.965 27.9322 159.477 28.8839 158.834 29.7404C158.192 30.597 157.407 31.287 156.479 31.8104C155.551 32.31 154.504 32.5242 153.338 32.4528C152.744 32.4052 152.161 32.2862 151.59 32.0959C151.042 31.9056 150.543 31.632 150.091 31.2751C149.662 30.9182 149.317 30.478 149.056 29.9546C148.794 29.4074 148.663 28.765 148.663 28.0274C148.663 27.5515 148.735 27.1352 148.877 26.7783C149.02 26.4214 149.21 26.124 149.448 25.8861C149.686 25.6481 149.948 25.4697 150.233 25.3507C150.543 25.2318 150.852 25.1723 151.161 25.1723C151.685 25.1723 152.149 25.4102 152.553 25.8861C152.981 26.3619 153.208 26.9686 153.231 27.7062C153.184 28.1107 153.148 28.5151 153.124 28.9196C153.124 29.3241 153.136 29.5977 153.16 29.7404C153.208 30.0498 153.267 30.3353 153.338 30.597C153.41 30.8349 153.529 30.9896 153.695 31.0609C154.005 31.1799 154.338 31.1442 154.695 30.9539C155.051 30.7397 155.373 30.4304 155.658 30.026C155.967 29.5977 156.217 29.1099 156.408 28.5627C156.598 28.0155 156.693 27.4564 156.693 26.8854C156.693 26.4095 156.61 25.9574 156.443 25.5292C156.301 25.1009 156.027 24.7202 155.622 24.3871C155.456 24.2444 155.266 24.1016 155.051 23.9589C154.837 23.8161 154.599 23.6615 154.338 23.4949C153.648 23.0429 152.97 22.5194 152.303 21.9246C151.661 21.3298 151.173 20.5447 150.84 19.5692C150.721 19.2361 150.638 18.8911 150.59 18.5342C150.567 18.1773 150.555 17.8323 150.555 17.4992C150.555 16.6903 150.662 15.8575 150.876 15.001C151.114 14.1445 151.447 13.3474 151.875 12.6099C152.327 11.8723 152.874 11.2299 153.517 10.6827C154.183 10.1117 154.932 9.70719 155.765 9.46926C156.336 9.32651 156.931 9.25513 157.55 9.25513C157.93 9.25513 158.37 9.29082 158.87 9.3622C159.346 9.45737 159.798 9.60012 160.226 9.79046C160.678 9.95701 161.071 10.1949 161.404 10.5042C161.737 10.8135 161.999 11.1942 162.189 11.6463C162.38 12.0983 162.475 12.6337 162.475 13.2523C162.475 13.7281 162.403 14.1445 162.261 14.5014C162.118 14.8583 161.927 15.1557 161.69 15.3936C161.475 15.6315 161.214 15.81 160.904 15.9289C160.619 16.0479 160.321 16.1074 160.012 16.1074C159.441 16.1074 158.93 15.8932 158.478 15.465C158.025 15.0367 157.835 14.3943 157.907 13.5378C157.954 13.1333 157.978 12.7407 157.978 12.36C158.002 11.9556 158.002 11.682 157.978 11.5392C157.978 11.3013 157.93 11.099 157.835 10.9325C157.669 10.766 157.466 10.6827 157.228 10.6827C156.919 10.6827 156.622 10.766 156.336 10.9325L156.372 10.8968C155.848 11.1585 155.444 11.6344 155.158 12.3244C154.897 12.9905 154.766 13.6805 154.766 14.3943C154.766 14.8702 154.837 15.3341 154.98 15.7862C155.123 16.2144 155.325 16.5594 155.587 16.8211L155.551 16.7854C156.003 17.1899 156.538 17.5587 157.157 17.8918C157.609 18.1535 158.049 18.439 158.478 18.7483C158.93 19.0576 159.322 19.4383 159.655 19.8904Z" fill="#FDFAE5"/>
<path d="M171.221 29.0624C171.245 29.1337 171.245 29.2289 171.221 29.3479C171.197 29.443 171.161 29.5144 171.114 29.562C170.924 29.7999 170.721 30.0379 170.507 30.2758C170.293 30.4899 170.091 30.704 169.9 30.9182H169.936C169.532 31.3464 169.02 31.739 168.402 32.0959C168.14 32.2625 167.854 32.3814 167.545 32.4528C167.259 32.5242 166.95 32.5836 166.617 32.6312C166.189 32.6788 165.725 32.6312 165.225 32.4885C164.749 32.3219 164.381 32.0721 164.119 31.739C163.881 31.4059 163.703 30.9539 163.584 30.3828C163.488 29.788 163.465 29.1218 163.512 28.3843C163.56 27.385 163.655 26.3738 163.798 25.3507C163.94 24.3039 164.107 23.2808 164.297 22.2815C164.369 21.877 164.428 21.4964 164.476 21.1395C164.547 20.7588 164.619 20.39 164.69 20.0331L164.868 18.9268V18.9625C165.082 17.4635 165.19 16.381 165.19 15.7148C165.19 15.1676 165.106 14.7393 164.94 14.43C164.797 14.1207 164.559 13.8114 164.226 13.5021L164.155 13.395C164.131 13.3474 164.119 13.2761 164.119 13.1809C164.119 13.1095 164.119 13.0262 164.119 12.9311C164.119 12.8359 164.143 12.7288 164.19 12.6099C164.19 12.5623 164.214 12.5028 164.262 12.4314C164.309 12.36 164.357 12.3125 164.404 12.2887L166.189 11.2894C166.308 10.5994 166.391 10.2425 166.439 10.2187C166.486 10.1949 166.486 10.5042 166.439 11.1466L169.865 9.25513H170.65C170.793 9.25513 170.912 9.31461 171.007 9.43357C171.126 9.52874 171.161 9.6596 171.114 9.82615C170.995 10.6351 170.888 11.3132 170.793 11.8604C170.697 12.4076 170.614 12.8835 170.543 13.288C170.495 13.6686 170.448 14.0017 170.4 14.2872C170.353 14.5727 170.317 14.8464 170.293 15.1081C170.245 15.3698 170.198 15.6434 170.15 15.9289C170.126 16.2144 170.079 16.5713 170.008 16.9996C169.936 17.4041 169.853 17.8918 169.758 18.4628C169.663 19.0338 169.544 19.7476 169.401 20.6041L169.258 21.7819C169.068 22.8763 168.877 23.9827 168.687 25.1009C168.52 26.2192 168.378 27.2779 168.259 28.2772C168.164 28.9434 168.199 29.4668 168.366 29.8475C168.437 30.0141 168.509 30.0973 168.58 30.0973C168.699 30.0735 168.83 30.0379 168.973 29.9903C169.139 29.9189 169.282 29.7999 169.401 29.6334H169.365C169.674 29.3241 169.984 28.9553 170.293 28.527C170.436 28.3605 170.59 28.301 170.757 28.3486C170.947 28.3724 171.066 28.5032 171.114 28.7412L171.221 29.0624ZM168.687 7.39932C167.878 7.39932 167.295 7.11381 166.938 6.54279C166.581 5.94798 166.403 5.26989 166.403 4.50853C166.403 4.05647 166.474 3.59252 166.617 3.11667C166.76 2.61703 166.962 2.17687 167.224 1.79619C167.509 1.41551 167.842 1.10621 168.223 0.868283C168.628 0.606566 169.091 0.475708 169.615 0.475708C170.424 0.475708 171.007 0.761218 171.364 1.33224C171.744 1.87946 171.935 2.53376 171.935 3.29512C171.935 3.77096 171.863 4.25871 171.721 4.75835C171.578 5.2342 171.364 5.67436 171.078 6.07884C170.793 6.45952 170.448 6.78071 170.043 7.04243C169.639 7.28035 169.187 7.39932 168.687 7.39932Z" fill="#FDFAE5"/>
<path d="M183.181 19.8904C183.585 20.39 183.882 20.9848 184.073 21.6748C184.263 22.341 184.358 23.031 184.358 23.7447C184.358 24.7678 184.18 25.8147 183.823 26.8854C183.49 27.9322 183.002 28.8839 182.36 29.7404C181.717 30.597 180.932 31.287 180.004 31.8104C179.076 32.31 178.029 32.5242 176.864 32.4528C176.269 32.4052 175.686 32.2862 175.115 32.0959C174.568 31.9056 174.068 31.632 173.616 31.2751C173.188 30.9182 172.843 30.478 172.581 29.9546C172.319 29.4074 172.188 28.765 172.188 28.0274C172.188 27.5515 172.26 27.1352 172.403 26.7783C172.545 26.4214 172.736 26.124 172.974 25.8861C173.212 25.6481 173.473 25.4697 173.759 25.3507C174.068 25.2318 174.377 25.1723 174.687 25.1723C175.21 25.1723 175.674 25.4102 176.078 25.8861C176.507 26.3619 176.733 26.9686 176.757 27.7062C176.709 28.1107 176.673 28.5151 176.65 28.9196C176.65 29.3241 176.661 29.5977 176.685 29.7404C176.733 30.0498 176.792 30.3353 176.864 30.597C176.935 30.8349 177.054 30.9896 177.221 31.0609C177.53 31.1799 177.863 31.1442 178.22 30.9539C178.577 30.7397 178.898 30.4304 179.183 30.026C179.493 29.5977 179.743 29.1099 179.933 28.5627C180.123 28.0155 180.218 27.4564 180.218 26.8854C180.218 26.4095 180.135 25.9574 179.969 25.5292C179.826 25.1009 179.552 24.7202 179.148 24.3871C178.981 24.2444 178.791 24.1016 178.577 23.9589C178.363 23.8161 178.125 23.6615 177.863 23.4949C177.173 23.0429 176.495 22.5194 175.829 21.9246C175.186 21.3298 174.699 20.5447 174.365 19.5692C174.246 19.2361 174.163 18.8911 174.116 18.5342C174.092 18.1773 174.08 17.8323 174.08 17.4992C174.08 16.6903 174.187 15.8575 174.401 15.001C174.639 14.1445 174.972 13.3474 175.4 12.6099C175.852 11.8723 176.4 11.2299 177.042 10.6827C177.708 10.1117 178.458 9.70719 179.29 9.46926C179.862 9.32651 180.456 9.25513 181.075 9.25513C181.456 9.25513 181.896 9.29082 182.395 9.3622C182.871 9.45737 183.323 9.60012 183.752 9.79046C184.204 9.95701 184.596 10.1949 184.929 10.5042C185.262 10.8135 185.524 11.1942 185.714 11.6463C185.905 12.0983 186 12.6337 186 13.2523C186 13.7281 185.929 14.1445 185.786 14.5014C185.643 14.8583 185.453 15.1557 185.215 15.3936C185.001 15.6315 184.739 15.81 184.43 15.9289C184.144 16.0479 183.847 16.1074 183.537 16.1074C182.966 16.1074 182.455 15.8932 182.003 15.465C181.551 15.0367 181.36 14.3943 181.432 13.5378C181.479 13.1333 181.503 12.7407 181.503 12.36C181.527 11.9556 181.527 11.682 181.503 11.5392C181.503 11.3013 181.456 11.099 181.36 10.9325C181.194 10.766 180.992 10.6827 180.754 10.6827C180.444 10.6827 180.147 10.766 179.861 10.9325L179.897 10.8968C179.374 11.1585 178.969 11.6344 178.684 12.3244C178.422 12.9905 178.291 13.6805 178.291 14.3943C178.291 14.8702 178.363 15.3341 178.505 15.7862C178.648 16.2144 178.85 16.5594 179.112 16.8211L179.076 16.7854C179.528 17.1899 180.064 17.5587 180.682 17.8918C181.134 18.1535 181.575 18.439 182.003 18.7483C182.455 19.0576 182.847 19.4383 183.181 19.8904Z" fill="#FDFAE5"/>
<path d="M12.3483 27.3732C12.5624 26.8498 12.8122 26.4572 13.0978 26.1955C13.3833 25.9338 13.6331 25.8029 13.8472 25.8029C14.1803 25.8029 14.4182 26.0052 14.561 26.4097C14.7038 26.7903 14.6324 27.3614 14.3469 28.1227C13.9424 29.0506 13.419 29.8596 12.7766 30.5495C12.1342 31.2395 11.3609 31.763 10.4568 32.1199H10.4925C9.65975 32.4767 8.63667 32.6552 7.42325 32.6552C5.25814 32.6552 3.58077 31.9533 2.39114 30.5495V30.5852C1.17773 29.1815 0.428265 27.2781 0.142755 24.875C0.0951699 24.4706 0.0594812 24.0542 0.0356888 23.6259C0.0118963 23.1739 0 22.7218 0 22.2698C0 21.3894 0.0356887 20.4853 0.107066 19.5574C0.202236 18.6057 0.321199 17.6302 0.463953 16.6309C0.725671 15.132 1.04687 13.7164 1.42755 12.384C1.80823 11.0278 2.27218 9.74302 2.81941 8.5296C3.86628 6.19794 5.21055 4.35402 6.85223 2.99785C7.66118 2.30787 8.5415 1.79633 9.4932 1.46324C10.4449 1.13014 11.4561 0.963596 12.5267 0.963596C13.1929 0.963596 13.7758 1.03497 14.2755 1.17773C14.7989 1.29669 15.2986 1.46324 15.7744 1.67737C16.1313 1.8915 16.4644 2.17701 16.7737 2.5339C17.083 2.867 17.3447 3.24767 17.5588 3.67594C17.7968 4.1042 17.9752 4.56816 18.0942 5.0678C18.2369 5.54365 18.3083 6.0195 18.3083 6.49535C18.3083 6.99499 18.2369 7.43515 18.0942 7.81583C17.9514 8.19651 17.7492 8.51771 17.4875 8.77943C17.2495 9.01735 16.9759 9.19579 16.6666 9.31476C16.3811 9.43372 16.0837 9.4932 15.7744 9.4932C15.1796 9.4932 14.6562 9.26717 14.2041 8.81511C13.7521 8.36306 13.5498 7.68497 13.5974 6.78086C13.6212 6.61431 13.6331 6.43587 13.6331 6.24553C13.6569 6.03139 13.6688 5.82916 13.6688 5.63882C13.6688 5.18676 13.6331 4.72281 13.5617 4.24696C13.4903 3.77111 13.3595 3.37853 13.1691 3.06923C12.8598 2.61717 12.4197 2.39115 11.8487 2.39115C11.0159 2.39115 10.2665 2.8551 9.60026 3.783C9.21958 4.25885 8.8627 4.88936 8.5296 5.67451C8.2203 6.43587 7.8991 7.35188 7.56601 8.42254C7.23291 9.4932 6.92361 10.7185 6.6381 12.0985C6.35259 13.4784 6.06708 15.0606 5.78157 16.8451C5.47227 18.6057 5.24624 20.1879 5.10349 21.5917C4.98452 22.9716 4.92504 24.197 4.92504 25.2676C4.92504 26.2907 4.98452 27.1948 5.10349 27.98C5.24624 28.7413 5.44848 29.3599 5.71019 29.8358C5.97191 30.264 6.28121 30.5971 6.6381 30.8351C7.01878 31.073 7.45894 31.1919 7.95858 31.1919C8.5296 31.1919 9.05304 31.0611 9.52889 30.7994C10.1713 30.4901 10.7304 30.0142 11.2063 29.3718C11.7059 28.7294 12.0866 28.0632 12.3483 27.3732Z" fill="#FDFAE5"/>
<path d="M32.3507 28.9436C32.3745 29.0149 32.3745 29.1101 32.3507 29.2291C32.3507 29.3242 32.3269 29.3956 32.2793 29.4432L31.0659 30.7994C30.8756 31.0373 30.6495 31.2633 30.3878 31.4774C30.1499 31.6678 29.9001 31.8224 29.6384 31.9414C29.0673 32.2983 28.4487 32.5124 27.7825 32.5838C26.8546 32.7028 26.1052 32.4054 25.5342 31.6916H25.5698C25.3081 31.3823 25.1178 30.9302 24.9988 30.3354C24.9037 29.7406 24.868 29.0863 24.8918 28.3725C24.7252 28.777 24.5587 29.1577 24.3921 29.5146C24.2256 29.8477 24.059 30.1451 23.8925 30.4068C22.9646 31.763 21.882 32.5362 20.6448 32.7266C19.6217 32.8455 18.8009 32.5957 18.1823 31.9771C17.8492 31.6678 17.5637 31.2871 17.3258 30.8351C17.0878 30.3592 16.8975 29.8358 16.7547 29.2647C16.6358 28.7889 16.5525 28.2774 16.5049 27.7301C16.4811 27.1591 16.4692 26.5881 16.4692 26.0171C16.4692 25.0178 16.5406 23.9828 16.6834 22.9122C16.8499 21.8177 17.0759 20.747 17.3614 19.7002C17.6707 18.6295 18.0395 17.5945 18.4678 16.5953C18.8961 15.5722 19.3719 14.6324 19.8953 13.7758H19.8597C20.2403 13.1572 20.6448 12.5981 21.0731 12.0985C21.5013 11.5988 21.9653 11.1468 22.4649 10.7423C23.488 9.88578 24.5944 9.38614 25.784 9.24338C26.1409 9.19579 26.474 9.1839 26.7833 9.20769C27.0926 9.23148 27.3543 9.30286 27.5684 9.42182C27.7825 9.54079 27.961 9.64785 28.1037 9.74302C28.2465 9.8144 28.3774 9.93336 28.4963 10.0999L31.9581 9.20769C32.1247 9.1601 32.2674 9.19579 32.3864 9.31476C32.5291 9.43372 32.5767 9.58837 32.5291 9.77871L29.9952 23.8044C29.9477 23.9233 29.912 24.078 29.8882 24.2683C29.8644 24.4349 29.8287 24.6133 29.7811 24.8037C29.7573 24.8512 29.7335 24.9226 29.7097 25.0178C29.7097 25.0892 29.7097 25.1487 29.7097 25.1962C29.7097 25.458 29.6859 25.7435 29.6384 26.0528C29.5908 26.3383 29.5432 26.5762 29.4956 26.7665C29.4956 26.9093 29.4837 27.0521 29.4599 27.1948C29.4599 27.3138 29.4599 27.4327 29.4599 27.5517C29.4123 27.7896 29.3885 27.98 29.3885 28.1227C29.3885 28.4796 29.4004 28.8127 29.4242 29.122C29.448 29.4075 29.4837 29.6335 29.5313 29.8001C29.5789 29.9428 29.6384 30.0142 29.7097 30.0142C29.9952 30.0142 30.2689 29.8477 30.5306 29.5146C30.6971 29.3242 30.8518 29.1458 30.9945 28.9792C31.1373 28.8127 31.2919 28.6224 31.4585 28.4082C31.5774 28.2417 31.7202 28.1822 31.8867 28.2298C32.0771 28.2774 32.1961 28.3963 32.2436 28.5867L32.3507 28.9436ZM27.5684 11.0635L27.2472 10.778L27.2829 10.8137C27.0688 10.6947 26.8665 10.659 26.6762 10.7066C26.3907 10.7304 26.1052 10.8494 25.8197 11.0635C25.558 11.2538 25.3081 11.4799 25.0702 11.7416C24.5944 12.4078 24.1066 13.3238 23.607 14.4896C23.2977 15.2748 23.0003 16.1908 22.7148 17.2377C22.4292 18.2607 22.1794 19.3314 21.9653 20.4496C21.7512 21.5679 21.5727 22.6861 21.43 23.8044C21.311 24.9226 21.2515 25.9576 21.2515 26.9093C21.2515 27.5755 21.2872 28.1703 21.3586 28.6937C21.43 29.1934 21.5489 29.5503 21.7155 29.7644H21.6798C21.8463 29.8834 21.9653 29.9309 22.0367 29.9071C22.346 29.8834 22.6553 29.6692 22.9646 29.2647C23.1549 29.0268 23.3215 28.7651 23.4642 28.4796C23.607 28.1703 23.7616 27.8134 23.9282 27.4089C24.3088 26.5286 24.6063 25.7078 24.8204 24.9464C24.9156 24.5657 25.0107 24.1732 25.1059 23.7687C25.2011 23.3642 25.2962 22.8884 25.3914 22.3411L27.5684 11.0635Z" fill="#FDFAE5"/>
<path d="M44.769 8.70805C45.7683 8.70805 46.5058 9.04114 46.9817 9.70733C47.4575 10.3497 47.6955 11.1706 47.6955 12.1699C47.6955 12.6457 47.636 13.1216 47.517 13.5974C47.3505 14.3588 47.0293 14.9298 46.5534 15.3105C46.1014 15.6673 45.6255 15.8458 45.1259 15.8458C44.5786 15.8458 44.0909 15.6673 43.6626 15.3105C43.2582 14.9298 43.044 14.3707 43.0202 13.6331V13.2762C43.0202 13.1097 43.0202 12.9312 43.0202 12.7409C43.0202 12.5267 43.0083 12.3364 42.9845 12.1699C42.9608 12.0033 42.9132 11.8606 42.8418 11.7416C42.7942 11.6226 42.7228 11.5631 42.6277 11.5631C42.4611 11.5631 42.2946 11.6345 42.128 11.7773H42.1637C41.9496 11.9914 41.7473 12.3245 41.557 12.7766C41.4142 13.0383 41.2834 13.3238 41.1644 13.6331C41.0455 13.9424 40.9503 14.2755 40.8789 14.6324C40.8075 14.8465 40.7243 15.1796 40.6291 15.6317C40.5339 16.0599 40.4388 16.5358 40.3436 17.0592L40.0224 19.0221C39.8796 19.8548 39.7607 20.5567 39.6655 21.1277C39.5941 21.6987 39.5227 22.1865 39.4514 22.591C39.4038 22.9954 39.3562 23.3404 39.3086 23.6259C39.261 23.9114 39.2134 24.1851 39.1659 24.4468C39.1183 24.7085 39.0707 24.9821 39.0231 25.2676C38.9755 25.5293 38.916 25.8624 38.8447 26.2669C38.7971 26.6714 38.7257 27.1591 38.6305 27.7301C38.5591 28.3012 38.464 29.003 38.345 29.8358V29.8001C38.2736 30.2521 38.2498 30.4901 38.2736 30.5139C38.3688 30.7518 38.4997 30.954 38.6662 31.1206C38.7138 31.1681 38.7614 31.2276 38.809 31.299C38.8803 31.3704 38.9636 31.4775 39.0588 31.6202C39.1777 31.8105 39.1896 31.989 39.0945 32.1555C39.0231 32.3221 38.8922 32.4054 38.7019 32.4054H32.4207C32.2066 32.4054 32.0519 32.3102 31.9567 32.1199C31.8854 31.9295 31.9091 31.7511 32.0281 31.5845C32.2422 31.3466 32.504 31.1206 32.8133 30.9064C32.9084 30.8113 32.9917 30.7399 33.0631 30.6923C33.1583 30.6447 33.2296 30.5971 33.2772 30.5495C33.3724 30.3592 33.4557 30.0618 33.527 29.6573L35.2401 18.8793V18.915C35.3591 18.1537 35.4423 17.5113 35.4899 16.9878C35.5613 16.4406 35.597 16.0004 35.597 15.6673C35.597 15.1201 35.5137 14.6919 35.3472 14.3826C35.1806 14.0733 34.9308 13.764 34.5977 13.4546H34.562C34.562 13.4071 34.5501 13.3476 34.5263 13.2762C34.5025 13.2048 34.4906 13.1453 34.4906 13.0978V12.955C34.4906 12.9074 34.4906 12.8598 34.4906 12.8123C34.5144 12.7409 34.5382 12.6576 34.562 12.5624C34.562 12.5148 34.5858 12.4554 34.6334 12.384C34.681 12.3126 34.7286 12.265 34.7761 12.2412L40.2722 9.20769H41.0217C41.1644 9.20769 41.2834 9.26717 41.3786 9.38613C41.4975 9.4813 41.5451 9.61216 41.5213 9.77871L41.3786 10.5282C41.6165 10.2427 41.8425 9.99284 42.0566 9.77871C42.2946 9.56458 42.5444 9.37424 42.8061 9.20769C43.4009 8.87459 44.0552 8.70805 44.769 8.70805Z" fill="#FDFAE5"/>
<path d="M62.8531 29.0149C62.9007 29.2053 62.8769 29.3718 62.7817 29.5146C62.5914 29.7525 62.3892 29.9904 62.175 30.2283C61.9847 30.4425 61.7825 30.6566 61.5683 30.8707C61.3542 31.1325 61.1163 31.3585 60.8546 31.5488C60.6166 31.7154 60.3668 31.8819 60.1051 32.0485C59.8434 32.215 59.5579 32.334 59.2486 32.4054C58.9393 32.4767 58.6181 32.5362 58.285 32.5838C57.8329 32.6314 57.369 32.5838 56.8931 32.441C56.4173 32.2745 56.0485 32.0247 55.7868 31.6916C55.5964 31.4299 55.4537 31.1087 55.3585 30.728C55.2871 30.3235 55.2276 29.8834 55.18 29.4075C54.9897 29.7406 54.8113 30.0499 54.6447 30.3354C54.502 30.5971 54.3354 30.8351 54.1451 31.0492C53.7168 31.5488 53.2529 31.9414 52.7532 32.2269C52.2536 32.5124 51.7301 32.6552 51.1829 32.6552C49.8981 32.6552 48.8869 32.1912 48.1494 31.2633C47.4356 30.383 47.0073 29.0268 46.8646 27.1948C46.8408 27.0045 46.8289 26.7903 46.8289 26.5524C46.8289 26.3145 46.8289 26.0766 46.8289 25.8386C46.8289 25.1011 46.8646 24.2802 46.936 23.3761C47.0073 22.472 47.1263 21.5203 47.2928 20.521C47.507 19.26 47.7568 18.0585 48.0423 16.9165C48.3278 15.7506 48.6371 14.7632 48.9702 13.9543C49.6364 12.2174 50.4453 10.9089 51.397 10.0285C52.4201 9.14821 53.5265 8.70805 54.7161 8.70805C55.9057 8.70805 56.8098 9.25527 57.4284 10.3497C57.476 10.4687 57.5236 10.5996 57.5712 10.7423C57.6426 10.8613 57.7021 10.9802 57.7496 11.0992L57.9995 9.70733V9.74302C58.2136 8.2203 58.3207 7.10206 58.3207 6.38828C58.3207 5.84105 58.2374 5.42469 58.0708 5.13918C57.9281 4.85367 57.7021 4.55626 57.3927 4.24696H57.3571C57.3333 4.19937 57.3095 4.13989 57.2857 4.06851C57.2619 3.97334 57.25 3.90197 57.25 3.85438V3.71163C57.25 3.59267 57.2619 3.4856 57.2857 3.39043C57.3095 3.31905 57.3333 3.25957 57.3571 3.21199C57.4046 3.14061 57.4522 3.08113 57.4998 3.03354L62.9959 0H63.781C63.9476 0 64.0784 0.0594811 64.1736 0.178443C64.2688 0.297407 64.2926 0.440162 64.245 0.606709C63.7215 3.96145 63.1981 7.2924 62.6747 10.5996C62.175 13.9067 61.6516 17.2258 61.1044 20.5567L60.8902 21.7344C60.7237 22.8289 60.5453 23.9352 60.3549 25.0535C60.1884 26.1717 60.0456 27.2305 59.9266 28.2298C59.9029 28.5629 59.9029 28.8722 59.9266 29.1577C59.9504 29.4432 59.998 29.6692 60.0694 29.8358C60.0932 29.9785 60.1527 30.0499 60.2478 30.0499C60.3668 30.0261 60.4858 29.9904 60.6047 29.9428C60.7475 29.8715 60.8902 29.7525 61.033 29.5859C61.4613 29.1577 61.7706 28.8008 61.9609 28.5153C62.0799 28.3487 62.2226 28.2774 62.3892 28.3012C62.5795 28.3249 62.7104 28.4439 62.7817 28.658L62.8531 29.0149ZM54.4306 28.1227C54.7637 27.2186 55.0968 26.0766 55.4299 24.6966C55.763 23.3166 56.0723 21.7344 56.3578 19.95C56.5243 18.9031 56.6552 17.9276 56.7504 17.0235C56.8455 16.1194 56.8931 15.3224 56.8931 14.6324C56.9407 13.2286 56.8336 12.2055 56.5719 11.5631C56.3578 11.0159 56.0604 10.7423 55.6797 10.7423C55.3228 10.7423 54.954 11.0397 54.5733 11.6345V11.5988C54.3592 11.9557 54.1451 12.3959 53.9309 12.9193C53.7168 13.4428 53.5146 14.0614 53.3242 14.7751C53.1339 15.4413 52.9436 16.2265 52.7532 17.1306C52.5867 18.0109 52.4082 19.0221 52.2179 20.1641C52.0275 21.4013 51.8729 22.5315 51.7539 23.5546C51.6588 24.5538 51.5874 25.4461 51.5398 26.2312V27.4089C51.5398 27.9324 51.5517 28.3963 51.5755 28.8008C51.5993 29.1815 51.6469 29.5027 51.7182 29.7644C51.8848 30.3354 52.1227 30.6209 52.432 30.6209C53.0982 30.6209 53.7644 29.7882 54.4306 28.1227Z" fill="#FDFAE5"/>
<path d="M75.335 19.8429C75.7394 20.3426 76.0368 20.9374 76.2272 21.6274C76.4175 22.2936 76.5127 22.9835 76.5127 23.6973C76.5127 24.7204 76.3343 25.7673 75.9774 26.8379C75.6443 27.8848 75.1565 28.8365 74.5141 29.693C73.8717 30.5495 73.0866 31.2395 72.1587 31.763C71.2308 32.2626 70.1839 32.4767 69.0181 32.4054C68.4233 32.3578 67.8403 32.2388 67.2693 32.0485C66.7221 31.8581 66.2225 31.5845 65.7704 31.2276C65.3421 30.8707 64.9971 30.4306 64.7354 29.9071C64.4737 29.3599 64.3428 28.7175 64.3428 27.98C64.3428 27.5041 64.4142 27.0877 64.557 26.7309C64.6997 26.374 64.8901 26.0766 65.128 25.8386C65.3659 25.6007 65.6276 25.4223 65.9132 25.3033C66.2225 25.1843 66.5318 25.1249 66.8411 25.1249C67.3645 25.1249 67.8284 25.3628 68.2329 25.8386C68.6612 26.3145 68.8872 26.9212 68.911 27.6588C68.8634 28.0632 68.8277 28.4677 68.8039 28.8722C68.8039 29.2766 68.8158 29.5503 68.8396 29.693C68.8872 30.0023 68.9467 30.2878 69.0181 30.5495C69.0894 30.7875 69.2084 30.9421 69.375 31.0135C69.6843 31.1325 70.0174 31.0968 70.3742 30.9064C70.7311 30.6923 71.0523 30.383 71.3378 29.9785C71.6471 29.5503 71.897 29.0625 72.0873 28.5153C72.2776 27.9681 72.3728 27.4089 72.3728 26.8379C72.3728 26.3621 72.2895 25.91 72.123 25.4817C71.9802 25.0535 71.7066 24.6728 71.3021 24.3397C71.1356 24.197 70.9453 24.0542 70.7311 23.9114C70.517 23.7687 70.2791 23.614 70.0174 23.4475C69.3274 22.9954 68.6493 22.472 67.9831 21.8772C67.3407 21.2824 66.853 20.4972 66.5199 19.5217C66.4009 19.1886 66.3176 18.8436 66.27 18.4868C66.2462 18.1299 66.2344 17.7849 66.2344 17.4518C66.2344 16.6428 66.3414 15.8101 66.5555 14.9536C66.7935 14.097 67.1266 13.3 67.5548 12.5624C68.0069 11.8249 68.5541 11.1825 69.1965 10.6352C69.8627 10.0642 70.6122 9.65975 71.4449 9.42182C72.0159 9.27907 72.6107 9.20769 73.2293 9.20769C73.61 9.20769 74.0502 9.24338 74.5498 9.31476C75.0257 9.40993 75.4777 9.55268 75.906 9.74302C76.358 9.90957 76.7506 10.1475 77.0837 10.4568C77.4168 10.7661 77.6785 11.1468 77.8689 11.5988C78.0592 12.0509 78.1544 12.5862 78.1544 13.2048C78.1544 13.6807 78.083 14.097 77.9402 14.4539C77.7975 14.8108 77.6072 15.1082 77.3692 15.3462C77.1551 15.5841 76.8934 15.7625 76.5841 15.8815C76.2986 16.0004 76.0012 16.0599 75.6919 16.0599C75.1208 16.0599 74.6093 15.8458 74.1572 15.4175C73.7052 14.9893 73.5148 14.3469 73.5862 13.4903C73.6338 13.0859 73.6576 12.6933 73.6576 12.3126C73.6814 11.9081 73.6814 11.6345 73.6576 11.4918C73.6576 11.2538 73.61 11.0516 73.5148 10.8851C73.3483 10.7185 73.1461 10.6352 72.9081 10.6352C72.5988 10.6352 72.3014 10.7185 72.0159 10.8851L72.0516 10.8494C71.5282 11.1111 71.1237 11.5869 70.8382 12.2769C70.5765 12.9431 70.4456 13.6331 70.4456 14.3469C70.4456 14.8227 70.517 15.2867 70.6597 15.7387C70.8025 16.167 71.0047 16.512 71.2665 16.7737L71.2308 16.738C71.6828 17.1425 72.2182 17.5113 72.8368 17.8444C73.2888 18.1061 73.729 18.3916 74.1572 18.7009C74.6093 19.0102 75.0019 19.3909 75.335 19.8429Z" fill="#FDFAE5"/>
<path d="M93.4939 13.2106C93.9092 13.6847 94.2118 14.3129 94.4016 15.0952C94.6033 15.8656 94.7042 16.719 94.7042 17.6554C94.7042 18.5088 94.6271 19.3919 94.4728 20.3046C94.3186 21.2172 94.0931 22.1003 93.7965 22.9537C93.5117 23.7953 93.1616 24.5716 92.7463 25.2828C92.331 25.9821 91.8623 26.5511 91.3402 26.9896C90.5333 27.6653 89.6434 28.0031 88.6704 28.0031C87.6262 28.0031 86.7956 27.6593 86.1786 26.9719C85.7751 26.4977 85.4785 25.8755 85.2886 25.105C85.0988 24.3346 85.0038 23.4871 85.0038 22.5626C85.0038 21.7091 85.081 20.8202 85.2352 19.8956C85.3895 18.9711 85.609 18.0881 85.8938 17.2465C86.1904 16.3931 86.5405 15.6167 86.9439 14.9174C87.3592 14.2062 87.8279 13.6314 88.35 13.1928C89.1332 12.529 90.0468 12.1971 91.091 12.1971C92.0878 12.1971 92.8887 12.5409 93.4939 13.2284V13.2106ZM90.4503 25.674C90.6876 25.1406 90.9131 24.4472 91.1266 23.5938C91.3521 22.7404 91.5479 21.8336 91.714 20.8735C91.892 19.9016 92.0344 18.9415 92.1412 17.9932C92.248 17.0332 92.3014 16.1916 92.3014 15.4686C92.3014 15.2908 92.2954 15.113 92.2836 14.9352C92.2717 14.7574 92.2539 14.5974 92.2302 14.4551C92.159 13.8862 92.0166 13.4891 91.803 13.2639C91.6369 13.0269 91.3936 12.9083 91.0732 12.9083C90.9071 12.9083 90.741 12.9439 90.5749 13.015C90.4088 13.0861 90.2545 13.1809 90.1121 13.2995C89.9816 13.4299 89.8392 13.6076 89.6849 13.8329C89.5425 14.0581 89.412 14.2951 89.2934 14.544C89.1391 14.8996 88.9848 15.3323 88.8306 15.8419C88.6763 16.3398 88.528 16.885 88.3856 17.4776C88.2551 18.0584 88.1305 18.6689 88.0118 19.3089C87.8932 19.949 87.7923 20.5831 87.7093 21.2113C87.6262 21.8395 87.5609 22.45 87.5135 23.0426C87.466 23.6234 87.4423 24.1509 87.4423 24.625C87.4423 24.8383 87.4482 25.0398 87.4601 25.2295C87.4719 25.4073 87.4897 25.5791 87.5135 25.7451C87.5847 26.314 87.7211 26.717 87.9229 26.9541C88.1008 27.1793 88.356 27.2919 88.6882 27.2919C89.0204 27.2919 89.329 27.1674 89.6137 26.9185C89.9341 26.6222 90.213 26.2073 90.4503 25.674Z" fill="#FDFAE5"/>
<path d="M102.729 13.6017C102.729 14.0877 102.599 14.4551 102.338 14.704C102.077 14.9411 101.792 15.0596 101.483 15.0596C101.222 15.0596 100.985 14.9352 100.771 14.6863C100.57 14.4374 100.463 14.1233 100.451 13.744C100.475 13.5425 100.487 13.341 100.487 13.1395C100.487 12.938 100.487 12.8016 100.487 12.7305C100.475 12.5883 100.439 12.4757 100.38 12.3927C100.32 12.2979 100.249 12.2505 100.166 12.2505C100.024 12.2505 99.9052 12.3809 99.8102 12.6416C99.6797 12.9972 99.5314 13.6314 99.3653 14.544L99.0805 16.322H100.576C100.73 16.322 100.807 16.4049 100.807 16.5709L100.771 16.7842C100.771 16.8435 100.748 16.9028 100.7 16.962C100.653 17.0094 100.599 17.0332 100.54 17.0332H98.9737C98.772 18.254 98.5703 19.4986 98.3685 20.7668C98.1787 22.0232 97.9888 23.2619 97.799 24.4827L97.6566 25.3895C97.5972 25.8162 97.5261 26.2725 97.443 26.7585C97.3718 27.2445 97.2828 27.7245 97.176 28.1986C97.0692 28.6846 96.9446 29.1409 96.8022 29.5677C96.6717 30.0062 96.5175 30.3855 96.3395 30.7055C96.1377 31.073 95.9123 31.3871 95.6631 31.6478C95.4139 31.9205 95.1529 32.1338 94.88 32.2879C94.346 32.5724 93.7408 32.7146 93.0645 32.7146H92.7975C92.7382 32.7146 92.6907 32.6909 92.6551 32.6435C92.6076 32.5961 92.5839 32.5368 92.5839 32.4657L92.6195 32.2701C92.6195 32.199 92.6432 32.1397 92.6907 32.0923C92.7263 32.0449 92.7738 32.0212 92.8331 32.0212H92.9399C93.2009 32.0212 93.4264 31.9264 93.6162 31.7367C93.7112 31.6419 93.812 31.5056 93.9188 31.3278C94.0256 31.15 94.1265 30.9426 94.2214 30.7055C94.3163 30.4329 94.4113 30.0892 94.5062 29.6743C94.6011 29.2713 94.6901 28.8387 94.7732 28.3764C94.8562 27.9142 94.9334 27.446 95.0046 26.9719C95.0876 26.4859 95.1588 26.0355 95.2181 25.6206C95.2419 25.4191 95.2715 25.2295 95.3071 25.0517C95.3427 24.862 95.3724 24.6665 95.3961 24.465L96.5709 17.0332H95.6809C95.6216 17.0332 95.5682 17.0094 95.5207 16.962C95.4851 16.9028 95.4673 16.8435 95.4673 16.7842L95.5029 16.5709C95.5029 16.4998 95.5207 16.4405 95.5563 16.3931C95.6038 16.3457 95.6572 16.322 95.7165 16.322H96.6776L96.7666 15.7708C97.004 14.4314 97.3896 13.4061 97.9236 12.695V12.7127C98.1371 12.3809 98.4338 12.1142 98.8135 11.9127L98.7957 11.9305C99.0449 11.7882 99.2941 11.6875 99.5433 11.6282C99.8043 11.5689 100.053 11.5393 100.291 11.5393C100.765 11.5393 101.204 11.6341 101.608 11.8238C101.928 11.966 102.195 12.1853 102.409 12.4816C102.622 12.7661 102.729 13.1395 102.729 13.6017Z" fill="#FDFAE5"/>
<rect x="61" y="42.9232" width="64.6014" height="22.4009" rx="4.33566" fill="#FDFAE5" stroke="#FDFAE5" stroke-width="2.16783"/>
<circle cx="113.759" cy="54.187" r="7.36173" transform="rotate(90 113.759 54.187)" fill="#CD302F"/>
<circle cx="103.566" cy="54.187" r="7.36173" transform="rotate(90 103.566 54.187)" fill="#CA840C"/>
<circle cx="93.3731" cy="54.1873" r="7.36173" transform="rotate(90 93.3731 54.1873)" fill="#4190A9"/>
<circle cx="83.1802" cy="54.1873" r="7.36173" transform="rotate(90 83.1802 54.1873)" fill="#D9AD1F"/>
<circle cx="72.9866" cy="54.1873" r="7.36173" transform="rotate(90 72.9866 54.1873)" fill="#399B2C"/>
</svg>
