<svg width="6" height="6" viewBox="0 0 6 6" fill="none" xmlns="http://www.w3.org/2000/svg">
<path d="M2.6582 0C4.12634 0 5.31629 1.1901 5.31641 2.6582C5.31641 4.12641 4.12641 5.31641 2.6582 5.31641C1.1901 5.31629 0 4.12634 0 2.6582C0.000116855 1.19017 1.19017 0.000116856 2.6582 0ZM3.42383 1.56055C3.28228 1.55028 3.14036 1.57881 3.01367 1.64355C2.88712 1.70827 2.77999 1.80646 2.7041 1.92773C2.62821 1.80653 2.52105 1.70824 2.39453 1.64355C2.26805 1.57895 2.12666 1.5504 1.98535 1.56055C1.41014 1.62993 1.14102 2.19788 1.3584 2.69922C1.63373 3.33171 2.61457 3.97509 2.65625 4.00195L2.7041 4.0332L2.75195 4.00195C2.79363 3.97381 3.77447 3.33043 4.0498 2.69922C4.2673 2.19785 3.99878 1.63025 3.42383 1.56055Z" fill="#450F0F"/>
</svg>
