<svg width="98" height="28" viewBox="0 0 98 28" fill="none" xmlns="http://www.w3.org/2000/svg">
<path d="M1.39373 20.8881L10.4595 26.6949C12.4374 27.9615 15.0047 26.507 15.0047 24.1199V12.5055C15.0047 10.1184 12.4374 8.66322 10.4595 9.93047L1.39373 15.7373C-0.464577 16.9278 -0.464577 19.6976 1.39373 20.8881Z" fill="#FDFAE5"/>
<path d="M95.9395 6.27465L86.8736 0.467801C84.8958 -0.798818 82.3285 0.655703 82.3285 3.04287V14.6572C82.3285 17.0443 84.8958 18.4995 86.8736 17.2323L95.9395 11.4254C97.7978 10.2349 97.7978 7.46511 95.9395 6.27465Z" fill="#FDFAE5"/>
<path d="M23.3342 9.57372H26.7537V17.5333H24.4595V11.2018H24.5411L23.0352 17.5333H20.8878L19.39 11.2018H19.4688V17.5333H17.2888V9.57372H20.8633L22.2088 15.3458H21.9859L23.3342 9.57372Z" fill="#FDFAE5"/>
<path d="M27.252 13.5535C27.252 13.1305 27.2955 12.7353 27.3825 12.3679C27.4713 11.9987 27.5972 11.661 27.7603 11.3549C27.9234 11.0469 28.12 10.7723 28.3502 10.5311C28.5821 10.2899 28.8422 10.0867 29.1303 9.92161C29.4184 9.75462 29.731 9.62753 30.0681 9.54033C30.407 9.45127 30.764 9.40674 31.1391 9.40674C31.5142 9.40674 31.8703 9.45127 32.2073 9.54033C32.5462 9.62753 32.8597 9.75462 33.1479 9.92161C33.436 10.0867 33.696 10.2899 33.928 10.5311C34.1599 10.7723 34.3566 11.0469 34.5178 11.3549C34.6809 11.661 34.806 11.9987 34.893 12.3679C34.9818 12.7353 35.0262 13.1305 35.0262 13.5535C35.0262 13.9765 34.9818 14.3727 34.893 14.7419C34.806 15.1092 34.6809 15.4469 34.5178 15.7549C34.3566 16.0611 34.1599 16.3347 33.928 16.5759C33.696 16.8171 33.436 17.0212 33.1479 17.1882C32.8597 17.3533 32.5462 17.4795 32.2073 17.5667C31.8703 17.6558 31.5142 17.7003 31.1391 17.7003C30.764 17.7003 30.407 17.6558 30.0681 17.5667C29.731 17.4795 29.4184 17.3533 29.1303 17.1882C28.8422 17.0212 28.5821 16.8171 28.3502 16.5759C28.12 16.3347 27.9234 16.0611 27.7603 15.7549C27.5972 15.4469 27.4713 15.1092 27.3825 14.7419C27.2955 14.3727 27.252 13.9765 27.252 13.5535ZM29.5679 13.5535C29.5679 13.8021 29.5824 14.0294 29.6114 14.2354C29.6422 14.4395 29.6866 14.6241 29.7446 14.7892C29.8044 14.9525 29.8787 15.0963 29.9675 15.2206C30.0563 15.343 30.1587 15.4451 30.2747 15.5267C30.3907 15.6065 30.5202 15.6668 30.6634 15.7076C30.8084 15.7484 30.9669 15.7688 31.1391 15.7688C31.3112 15.7688 31.4689 15.7484 31.6121 15.7076C31.757 15.6668 31.8875 15.6065 32.0035 15.5267C32.1195 15.4451 32.2218 15.343 32.3106 15.2206C32.3994 15.0963 32.4728 14.9525 32.5308 14.7892C32.5906 14.6241 32.635 14.4395 32.664 14.2354C32.6948 14.0294 32.7102 13.8021 32.7102 13.5535C32.7102 13.3049 32.6948 13.0785 32.664 12.8744C32.635 12.6685 32.5906 12.4839 32.5308 12.3206C32.4728 12.1555 32.3994 12.0117 32.3106 11.8892C32.2218 11.7649 32.1195 11.6629 32.0035 11.5831C31.8875 11.5015 31.757 11.4402 31.6121 11.3994C31.4689 11.3586 31.3112 11.3382 31.1391 11.3382C30.9669 11.3382 30.8084 11.3586 30.6634 11.3994C30.5202 11.4402 30.3907 11.5015 30.2747 11.5831C30.1587 11.6629 30.0563 11.7649 29.9675 11.8892C29.8787 12.0117 29.8044 12.1555 29.7446 12.3206C29.6866 12.4839 29.6422 12.6685 29.6114 12.8744C29.5824 13.0785 29.5679 13.3049 29.5679 13.5535Z" fill="#FDFAE5"/>
<path d="M37.8143 17.5333H35.5201V9.56816H39.448C39.9336 9.56816 40.3622 9.62382 40.7337 9.73514C41.1052 9.84646 41.4169 10.0079 41.6688 10.2194C41.9207 10.4309 42.1109 10.6897 42.2396 10.9959C42.3701 11.302 42.4353 11.6499 42.4353 12.0395C42.4353 12.3865 42.3818 12.6991 42.2749 12.9774C42.1698 13.2557 42.0185 13.4941 41.821 13.6927C41.6235 13.8893 41.3843 14.0415 41.1034 14.1491C40.8243 14.2548 40.5126 14.3077 40.1683 14.3077V14.3022C40.3441 14.3022 40.5099 14.3291 40.6657 14.3829C40.8216 14.4348 40.9665 14.5137 41.1006 14.6194C41.2347 14.7233 41.358 14.8541 41.4703 15.0118C41.5845 15.1695 41.6869 15.3523 41.7775 15.5601L42.6446 17.5333H40.0867L39.2006 15.5657C39.1281 15.4024 39.0629 15.2688 39.0049 15.1649C38.9469 15.061 38.8889 14.9803 38.8309 14.9228C38.7729 14.8653 38.7095 14.8263 38.6406 14.8059C38.5736 14.7836 38.493 14.7725 38.3987 14.7725H37.7599L37.8143 14.7085V17.5333ZM37.7219 11.3883L37.8143 11.2686V13.2084L37.6702 13.0192H39.2006C39.351 13.0192 39.4842 13.0015 39.6002 12.9663C39.7162 12.931 39.814 12.8791 39.8938 12.8104C39.9735 12.7399 40.0333 12.6537 40.0732 12.5516C40.1148 12.4477 40.1357 12.3308 40.1357 12.2009C40.1357 12.0692 40.1157 11.9532 40.0759 11.8531C40.036 11.751 39.9762 11.6666 39.8965 11.5998C39.8167 11.5311 39.718 11.4792 39.6002 11.4439C39.4842 11.4068 39.351 11.3883 39.2006 11.3883H37.7219Z" fill="#FDFAE5"/>
<path d="M43.059 9.57372H48.5498V11.4829H45.2227L45.3532 11.3438V12.8188L45.2227 12.6796H48.2454V14.433H45.2227L45.3532 14.2938V15.7633L45.2227 15.6241H48.6368V17.5333H43.059V9.57372Z" fill="#FDFAE5"/>
<path d="M55.9129 9.57372H58.9138L59.7837 16.0611H59.7755L60.8411 9.57372H63.1815L61.4255 17.5333H58.2778L57.3509 11.2129H57.359L56.4267 17.5333H53.2789L51.5311 9.57372H53.9857L55.0458 16.0611H55.0349L55.9129 9.57372Z" fill="#FDFAE5"/>
<path d="M65.7293 9.57372V17.5333H63.4351V9.57372H65.7293Z" fill="#FDFAE5"/>
<path d="M72.7633 9.57372V11.4829H70.4473L70.5778 11.3493V17.5333H68.2836V11.3493L68.4141 11.4829H66.0981V9.57372H72.7633Z" fill="#FDFAE5"/>
<path d="M80.0444 9.57372V17.5333H77.7502V14.3717L77.8372 14.5276H75.3147L75.4343 14.3717V17.5333H73.1401V9.57372H75.4343V12.7576L75.3147 12.5961H77.8372L77.7502 12.7576V9.57372H80.0444Z" fill="#FDFAE5"/>
<path d="M17.2888 18.9806H19.583V25.1701L19.4525 25.031H22.6492V26.9402H17.2888V18.9806Z" fill="#FDFAE5"/>
<path d="M23.0863 18.9806H28.5771V20.8898H25.25L25.3805 20.7506V22.2256L25.25 22.0865H28.2727V23.8398H25.25L25.3805 23.7007V25.1701L25.25 25.031H28.6641V26.9402H23.0863V18.9806Z" fill="#FDFAE5"/>
<path d="M32.513 18.8136C33.0476 18.8136 33.526 18.8776 33.9482 19.0056C34.3722 19.1318 34.7302 19.3155 35.0219 19.5567C35.3155 19.796 35.5393 20.0882 35.6933 20.4333C35.8492 20.7766 35.9271 21.1662 35.9271 21.6022H33.7471C33.7471 21.4501 33.7172 21.3137 33.6574 21.1931C33.5994 21.0707 33.5151 20.9677 33.4046 20.8842C33.2958 20.7989 33.1626 20.7339 33.005 20.6894C32.8491 20.643 32.6743 20.6198 32.4804 20.6198C32.3716 20.6198 32.2683 20.6263 32.1705 20.6393C32.0726 20.6523 31.9811 20.6727 31.8959 20.7005C31.8108 20.7283 31.7328 20.7617 31.6622 20.8007C31.5915 20.8397 31.5317 20.8842 31.4828 20.9343C31.4338 20.9844 31.3958 21.0401 31.3686 21.1013C31.3414 21.1607 31.3278 21.2256 31.3278 21.2961C31.3278 21.3759 31.3405 21.4445 31.3659 21.502C31.3913 21.5596 31.4293 21.6097 31.48 21.6523C31.5326 21.695 31.5987 21.7321 31.6785 21.7637C31.7582 21.7933 31.8534 21.8212 31.9639 21.8471C32.0744 21.8731 32.2004 21.8972 32.3417 21.9195C32.4831 21.9418 32.6407 21.9659 32.8147 21.9919L33.0458 22.0253C33.2596 22.0568 33.4852 22.0939 33.7226 22.1366C33.96 22.1774 34.1938 22.2331 34.4239 22.3036C34.6559 22.3741 34.8769 22.465 35.0871 22.5763C35.2974 22.6858 35.4822 22.8249 35.6417 22.9938C35.8011 23.1626 35.928 23.3667 36.0222 23.606C36.1183 23.8454 36.1663 24.1293 36.1663 24.4577C36.1663 24.8807 36.0838 25.2564 35.9189 25.5848C35.7558 25.9132 35.5193 26.1906 35.2095 26.4169C34.8996 26.6414 34.5218 26.8131 34.076 26.9318C33.6302 27.0487 33.1255 27.1071 32.5619 27.1071C31.9621 27.1071 31.4347 27.0422 30.9799 26.9123C30.5269 26.7806 30.1472 26.5923 29.841 26.3474C29.5365 26.1006 29.3073 25.8 29.1532 25.4457C28.9992 25.0913 28.9222 24.6914 28.9222 24.2461H31.1022C31.1022 24.4131 31.1348 24.5616 31.2001 24.6914C31.2671 24.8213 31.3632 24.9317 31.4882 25.0226C31.6132 25.1135 31.7646 25.1831 31.9421 25.2314C32.1216 25.2777 32.3254 25.3009 32.5538 25.3009C32.7458 25.3009 32.9225 25.2842 33.0838 25.2508C33.2469 25.2156 33.3873 25.1664 33.5051 25.1033C33.6229 25.0384 33.7144 24.9595 33.7797 24.8668C33.8467 24.774 33.8802 24.6692 33.8802 24.5523C33.8802 24.4688 33.8676 24.3964 33.8422 24.3352C33.8168 24.2721 33.777 24.2183 33.7226 24.1738C33.67 24.1293 33.603 24.0912 33.5214 24.0597C33.4399 24.0281 33.3439 24.0003 33.2333 23.9762C33.1228 23.9521 32.9977 23.9298 32.8582 23.9094C32.7187 23.889 32.5637 23.8677 32.3934 23.8454L32.0753 23.8009C31.8724 23.7749 31.6549 23.7433 31.423 23.7062C31.1928 23.6691 30.9654 23.6181 30.7407 23.5532C30.516 23.4882 30.3003 23.4038 30.0937 23.2999C29.889 23.1941 29.7078 23.0596 29.5501 22.8964C29.3943 22.7331 29.2692 22.5355 29.175 22.3036C29.0826 22.0716 29.0364 21.7952 29.0364 21.4742C29.0364 21.1885 29.0744 20.925 29.1505 20.6838C29.2284 20.4408 29.3399 20.2209 29.4849 20.0242C29.6298 19.8257 29.8056 19.6513 30.0122 19.501C30.2188 19.3507 30.4507 19.2246 30.7081 19.1225C30.9654 19.0205 31.2454 18.9435 31.548 18.8915C31.8524 18.8396 32.1741 18.8136 32.513 18.8136Z" fill="#FDFAE5"/>
<path d="M39.9881 18.8136C40.5227 18.8136 41.0011 18.8776 41.4234 19.0056C41.8474 19.1318 42.2053 19.3155 42.4971 19.5567C42.7906 19.796 43.0144 20.0882 43.1685 20.4333C43.3243 20.7766 43.4022 21.1662 43.4022 21.6022H41.2222C41.2222 21.4501 41.1923 21.3137 41.1325 21.1931C41.0745 21.0707 40.9902 20.9677 40.8797 20.8842C40.771 20.7989 40.6378 20.7339 40.4801 20.6894C40.3243 20.643 40.1494 20.6198 39.9555 20.6198C39.8468 20.6198 39.7435 20.6263 39.6456 20.6393C39.5478 20.6523 39.4563 20.6727 39.3711 20.7005C39.2859 20.7283 39.208 20.7617 39.1373 20.8007C39.0666 20.8397 39.0068 20.8842 38.9579 20.9343C38.909 20.9844 38.8709 21.0401 38.8437 21.1013C38.8166 21.1607 38.803 21.2256 38.803 21.2961C38.803 21.3759 38.8157 21.4445 38.841 21.502C38.8664 21.5596 38.9045 21.6097 38.9552 21.6523C39.0077 21.695 39.0739 21.7321 39.1536 21.7637C39.2334 21.7933 39.3285 21.8212 39.439 21.8471C39.5496 21.8731 39.6755 21.8972 39.8169 21.9195C39.9582 21.9418 40.1159 21.9659 40.2899 21.9919L40.5209 22.0253C40.7347 22.0568 40.9603 22.0939 41.1977 22.1366C41.4351 22.1774 41.6689 22.2331 41.899 22.3036C42.131 22.3741 42.3521 22.465 42.5623 22.5763C42.7725 22.6858 42.9573 22.8249 43.1168 22.9938C43.2763 23.1626 43.4031 23.3667 43.4974 23.606C43.5934 23.8454 43.6414 24.1293 43.6414 24.4577C43.6414 24.8807 43.559 25.2564 43.3941 25.5848C43.231 25.9132 42.9945 26.1906 42.6846 26.4169C42.3747 26.6414 41.9969 26.8131 41.5511 26.9318C41.1053 27.0487 40.6006 27.1071 40.0371 27.1071C39.4372 27.1071 38.9099 27.0422 38.455 26.9123C38.002 26.7806 37.6224 26.5923 37.3161 26.3474C37.0117 26.1006 36.7824 25.8 36.6284 25.4457C36.4744 25.0913 36.3973 24.6914 36.3973 24.2461H38.5774C38.5774 24.4131 38.61 24.5616 38.6752 24.6914C38.7423 24.8213 38.8383 24.9317 38.9634 25.0226C39.0884 25.1135 39.2397 25.1831 39.4173 25.2314C39.5967 25.2777 39.8006 25.3009 40.0289 25.3009C40.221 25.3009 40.3977 25.2842 40.559 25.2508C40.722 25.2156 40.8625 25.1664 40.9803 25.1033C41.0981 25.0384 41.1896 24.9595 41.2548 24.8668C41.3219 24.774 41.3554 24.6692 41.3554 24.5523C41.3554 24.4688 41.3427 24.3964 41.3173 24.3352C41.292 24.2721 41.2521 24.2183 41.1977 24.1738C41.1452 24.1293 41.0781 24.0912 40.9966 24.0597C40.915 24.0281 40.819 24.0003 40.7085 23.9762C40.5979 23.9521 40.4729 23.9298 40.3333 23.9094C40.1938 23.889 40.0389 23.8677 39.8685 23.8454L39.5505 23.8009C39.3475 23.7749 39.1301 23.7433 38.8981 23.7062C38.668 23.6691 38.4405 23.6181 38.2158 23.5532C37.9911 23.4882 37.7755 23.4038 37.5689 23.2999C37.3641 23.1941 37.1829 23.0596 37.0252 22.8964C36.8694 22.7331 36.7444 22.5355 36.6501 22.3036C36.5577 22.0716 36.5115 21.7952 36.5115 21.4742C36.5115 21.1885 36.5496 20.925 36.6257 20.6838C36.7036 20.4408 36.815 20.2209 36.96 20.0242C37.105 19.8257 37.2808 19.6513 37.4873 19.501C37.6939 19.3507 37.9259 19.2246 38.1832 19.1225C38.4405 19.0205 38.7205 18.9435 39.0232 18.8915C39.3276 18.8396 39.6493 18.8136 39.9881 18.8136Z" fill="#FDFAE5"/>
<path d="M45.9934 8.12656V0.166984H49.1058C49.4863 0.166984 49.846 0.20873 50.1849 0.292222C50.5256 0.375714 50.8391 0.497241 51.1254 0.656804C51.4135 0.816367 51.6718 1.01211 51.9001 1.24403C52.1284 1.47595 52.3223 1.73942 52.4818 2.03442C52.6431 2.32943 52.7663 2.65412 52.8515 3.0085C52.9367 3.36102 52.9793 3.74044 52.9793 4.14677C52.9793 4.5531 52.9367 4.93345 52.8515 5.28783C52.7663 5.64035 52.6431 5.96412 52.4818 6.25912C52.3223 6.55413 52.1284 6.81759 51.9001 7.04951C51.6718 7.28143 51.4135 7.47718 51.1254 7.63674C50.8391 7.7963 50.5256 7.91783 50.1849 8.00132C49.846 8.08481 49.4863 8.12656 49.1058 8.12656H45.9934ZM48.2821 6.39549L48.0864 6.19511H49.0269C49.2063 6.19511 49.3712 6.17656 49.5217 6.13945C49.6721 6.10234 49.8071 6.04668 49.9267 5.97246C50.0481 5.89639 50.1541 5.80177 50.2447 5.68859C50.3371 5.57356 50.4141 5.43997 50.4758 5.28783C50.5374 5.13569 50.5836 4.96499 50.6144 4.77574C50.647 4.5865 50.6633 4.37684 50.6633 4.14677C50.6633 3.9167 50.647 3.70705 50.6144 3.5178C50.5836 3.32855 50.5374 3.15785 50.4758 3.00571C50.4141 2.85357 50.3371 2.72091 50.2447 2.60773C50.1541 2.4927 50.0481 2.39808 49.9267 2.32386C49.8071 2.24779 49.6721 2.1912 49.5217 2.15409C49.3712 2.11699 49.2063 2.09843 49.0269 2.09843H48.0864L48.2821 1.89805V6.39549Z" fill="#FDFAE5"/>
<path d="M53.3976 4.14677C53.3976 3.72375 53.4411 3.32855 53.5281 2.96118C53.6169 2.59196 53.7428 2.25429 53.9059 1.94815C54.069 1.64015 54.2656 1.36556 54.4958 1.12436C54.7277 0.88316 54.9878 0.679996 55.2759 0.514867C55.564 0.347884 55.8766 0.22079 56.2137 0.133587C56.5526 0.044529 56.9096 0 57.2847 0C57.6598 0 58.0159 0.044529 58.3529 0.133587C58.6918 0.22079 59.0053 0.347884 59.2935 0.514867C59.5816 0.679996 59.8416 0.88316 60.0736 1.12436C60.3055 1.36556 60.5022 1.64015 60.6634 1.94815C60.8265 2.25429 60.9516 2.59196 61.0386 2.96118C61.1274 3.32855 61.1718 3.72375 61.1718 4.14677C61.1718 4.5698 61.1274 4.96592 61.0386 5.33514C60.9516 5.70251 60.8265 6.04019 60.6634 6.34818C60.5022 6.65432 60.3055 6.92798 60.0736 7.16918C59.8416 7.41038 59.5816 7.61447 59.2935 7.78146C59.0053 7.94659 58.6918 8.07275 58.3529 8.15996C58.0159 8.24901 57.6598 8.29354 57.2847 8.29354C56.9096 8.29354 56.5526 8.24901 56.2137 8.15996C55.8766 8.07275 55.564 7.94659 55.2759 7.78146C54.9878 7.61447 54.7277 7.41038 54.4958 7.16918C54.2656 6.92798 54.069 6.65432 53.9059 6.34818C53.7428 6.04019 53.6169 5.70251 53.5281 5.33514C53.4411 4.96592 53.3976 4.5698 53.3976 4.14677ZM55.7135 4.14677C55.7135 4.39539 55.728 4.62268 55.757 4.82862C55.7878 5.03271 55.8322 5.21732 55.8902 5.38245C55.95 5.54573 56.0243 5.68952 56.1131 5.81383C56.2019 5.93628 56.3043 6.03833 56.4203 6.11997C56.5363 6.19975 56.6658 6.26005 56.809 6.30087C56.954 6.34168 57.1125 6.36209 57.2847 6.36209C57.4568 6.36209 57.6145 6.34168 57.7577 6.30087C57.9026 6.26005 58.0331 6.19975 58.1491 6.11997C58.2651 6.03833 58.3674 5.93628 58.4562 5.81383C58.545 5.68952 58.6184 5.54573 58.6764 5.38245C58.7362 5.21732 58.7806 5.03271 58.8096 4.82862C58.8404 4.62268 58.8558 4.39539 58.8558 4.14677C58.8558 3.89815 58.8404 3.67179 58.8096 3.4677C58.7806 3.26176 58.7362 3.07715 58.6764 2.91387C58.6184 2.74874 58.545 2.60495 58.4562 2.4825C58.3674 2.35819 58.2651 2.25614 58.1491 2.17636C58.0331 2.09472 57.9026 2.03349 57.7577 1.99268C57.6145 1.95186 57.4568 1.93145 57.2847 1.93145C57.1125 1.93145 56.954 1.95186 56.809 1.99268C56.6658 2.03349 56.5363 2.09472 56.4203 2.17636C56.3043 2.25614 56.2019 2.35819 56.1131 2.4825C56.0243 2.60495 55.95 2.74874 55.8902 2.91387C55.8322 3.07715 55.7878 3.26176 55.757 3.4677C55.728 3.67179 55.7135 3.89815 55.7135 4.14677Z" fill="#FDFAE5"/>
<path d="M63.9599 0.166984V8.12656H61.6657V0.166984H63.9599Z" fill="#FDFAE5"/>
<path d="M71.8691 0.166984V8.12656H68.8492L66.7018 2.53816L66.7126 2.53537V8.12656H64.5326V0.166984H67.7157L69.7 5.29896L69.6891 5.30174V0.166984H71.8691Z" fill="#FDFAE5"/>
<path d="M74.6775 4.14677C74.6775 4.3991 74.692 4.6301 74.721 4.83976C74.7518 5.04941 74.7971 5.23866 74.8569 5.4075C74.9167 5.57449 74.991 5.72106 75.0798 5.84723C75.1704 5.97154 75.2746 6.07544 75.3924 6.15893C75.5102 6.24242 75.6425 6.3055 75.7892 6.34818C75.936 6.389 76.0973 6.40941 76.2731 6.40941C76.4271 6.40941 76.5721 6.39642 76.708 6.37044C76.8457 6.34261 76.9735 6.30272 77.0913 6.25077C77.2091 6.19882 77.3151 6.13481 77.4093 6.05874C77.5035 5.98081 77.5833 5.89083 77.6485 5.78878C77.7156 5.68674 77.7663 5.57356 77.8007 5.44925C77.837 5.32494 77.8551 5.18857 77.8551 5.04014V5.00674L77.9774 5.19321H76.2078V3.86846H80.0297V8.12656H77.8986V6.10049H77.9992C77.8977 6.44373 77.7645 6.7508 77.5996 7.02168C77.4347 7.29071 77.2417 7.51985 77.0206 7.7091C76.7995 7.89835 76.5531 8.04307 76.2812 8.14326C76.0094 8.24345 75.7177 8.29354 75.406 8.29354C75.116 8.29354 74.8388 8.24901 74.5742 8.15996C74.3114 8.07275 74.0677 7.94566 73.843 7.77868C73.6183 7.61169 73.4144 7.4076 73.2314 7.1664C73.0484 6.92335 72.8925 6.64875 72.7638 6.34261C72.6352 6.03462 72.5355 5.69694 72.4648 5.32958C72.396 4.96036 72.3615 4.56609 72.3615 4.14677C72.3615 3.7256 72.405 3.3304 72.492 2.96118C72.5808 2.59196 72.7059 2.25429 72.8671 1.94815C73.0302 1.64015 73.2278 1.36556 73.4597 1.12436C73.6917 0.88316 73.9517 0.679996 74.2398 0.514867C74.528 0.347884 74.8406 0.22079 75.1776 0.133587C75.5147 0.044529 75.8717 0 76.2486 0C76.5621 0 76.8648 0.032469 77.1565 0.097407C77.4483 0.162345 77.7237 0.25697 77.9829 0.38128C78.242 0.505591 78.4812 0.658659 78.7005 0.840487C78.9197 1.02231 79.1155 1.23012 79.2876 1.46389C79.4598 1.69582 79.6038 1.95279 79.7198 2.2348C79.8376 2.51682 79.9228 2.82018 79.9753 3.14487H77.7029C77.6558 2.93706 77.5869 2.75709 77.4963 2.60495C77.4075 2.45281 77.3006 2.32664 77.1755 2.22645C77.0505 2.12626 76.9092 2.05205 76.7515 2.00381C76.5956 1.95557 76.428 1.93145 76.2486 1.93145C76.0765 1.93145 75.9179 1.95186 75.7729 1.99268C75.6298 2.03349 75.5002 2.09472 75.3842 2.17636C75.2682 2.25614 75.1659 2.35819 75.0771 2.4825C74.9883 2.60495 74.914 2.74874 74.8542 2.91387C74.7962 3.07715 74.7518 3.26176 74.721 3.4677C74.692 3.67179 74.6775 3.89815 74.6775 4.14677Z" fill="#FDFAE5"/>
</svg>
