<svg width="6" height="6" viewBox="0 0 6 6" fill="none" xmlns="http://www.w3.org/2000/svg">
<path d="M2.6582 0C4.12634 0 5.31629 1.1901 5.31641 2.6582C5.31641 4.12641 4.12641 5.31641 2.6582 5.31641C1.1901 5.31629 0 4.12634 0 2.6582C0.000116855 1.19017 1.19017 0.000116856 2.6582 0ZM2.41797 1.09961C2.39201 1.09961 2.36986 1.1191 2.36621 1.14453L2.31934 1.4834C2.23155 1.50833 2.1464 1.54374 2.06641 1.58789L1.79492 1.38184C1.77475 1.36632 1.74527 1.36777 1.72656 1.38574L1.38672 1.72656C1.36854 1.74526 1.36625 1.77414 1.38184 1.79492L1.58789 2.06641C1.54378 2.14632 1.50833 2.23112 1.4834 2.31934L1.14453 2.36621C1.11916 2.36992 1.09961 2.39205 1.09961 2.41797L1.09961 2.89844C1.09961 2.92434 1.11917 2.94648 1.14453 2.9502L1.4834 2.99707C1.50833 3.08536 1.54375 3.17002 1.58789 3.25L1.38184 3.52246C1.3663 3.54323 1.36856 3.57116 1.38672 3.58984L1.72656 3.93066C1.74527 3.94874 1.7747 3.9511 1.79492 3.93555L2.06738 3.72852C2.14686 3.77267 2.23155 3.80807 2.31934 3.83301L2.36621 4.17188C2.36985 4.19733 2.392 4.2168 2.41797 4.2168H2.89941C2.92518 4.21657 2.94658 4.19717 2.9502 4.17188L2.99805 3.83301C3.08567 3.80808 3.17066 3.77259 3.25 3.72852L3.52246 3.93555C3.54271 3.95089 3.57221 3.94876 3.59082 3.93066L3.93066 3.58984C3.94854 3.57123 3.95081 3.54312 3.93555 3.52246L3.72949 3.25C3.77357 3.17011 3.80809 3.08525 3.83301 2.99707L4.17188 2.9502C4.19733 2.94656 4.2168 2.92441 4.2168 2.89844L4.2168 2.41797C4.2168 2.392 4.19733 2.36985 4.17188 2.36621L3.83301 2.31934C3.80808 2.23117 3.77358 2.14629 3.72949 2.06641L3.93555 1.79492C3.9511 1.77419 3.94874 1.74527 3.93066 1.72656L3.59082 1.38574C3.57212 1.36756 3.54272 1.36625 3.52246 1.38184L3.25 1.58789C3.17064 1.5438 3.08569 1.50833 2.99805 1.4834L2.9502 1.14453C2.94654 1.11928 2.92515 1.09984 2.89941 1.09961H2.41797ZM2.6582 2.00586C3.01763 2.00586 3.31048 2.29879 3.31055 2.6582C3.31055 3.01767 3.01767 3.31055 2.6582 3.31055C2.29884 3.31042 2.00586 3.01759 2.00586 2.6582C2.00592 2.29886 2.29888 2.00598 2.6582 2.00586Z" fill="#450F0F"/>
</svg>
