<svg width="182" height="36" viewBox="0 0 182 36" fill="none" xmlns="http://www.w3.org/2000/svg">
<path d="M154.198 16.1C154.287 15.8842 154.39 15.7223 154.507 15.6144C154.625 15.5065 154.728 15.4525 154.816 15.4525C154.954 15.4525 155.052 15.5359 155.111 15.7027C155.17 15.8596 155.14 16.0951 155.022 16.409C154.856 16.7916 154.64 17.1252 154.375 17.4097C154.11 17.6942 153.791 17.91 153.418 18.0572H153.433C153.09 18.2043 152.668 18.2779 152.168 18.2779C151.275 18.2779 150.583 17.9885 150.093 17.4097V17.4244C149.592 16.8456 149.283 16.0608 149.166 15.0699C149.146 14.9031 149.131 14.7314 149.121 14.5548C149.112 14.3684 149.107 14.182 149.107 13.9956C149.107 13.6327 149.121 13.2599 149.151 12.8773C149.19 12.4848 149.239 12.0826 149.298 11.6706C149.406 11.0525 149.538 10.4688 149.695 9.91939C149.852 9.36019 150.044 8.83043 150.269 8.33009C150.701 7.36867 151.255 6.60835 151.932 6.04916C152.266 5.76465 152.629 5.55373 153.021 5.41638C153.413 5.27903 153.83 5.21036 154.272 5.21036C154.547 5.21036 154.787 5.23979 154.993 5.29865C155.209 5.34771 155.415 5.41638 155.611 5.50467C155.758 5.59297 155.896 5.71069 156.023 5.85785C156.151 5.9952 156.259 6.15217 156.347 6.32876C156.445 6.50534 156.519 6.69665 156.568 6.90267C156.626 7.09888 156.656 7.29509 156.656 7.4913C156.656 7.69732 156.626 7.87881 156.568 8.03578C156.509 8.19275 156.425 8.32519 156.317 8.4331C156.219 8.53121 156.106 8.60479 155.979 8.65384C155.861 8.70289 155.739 8.72742 155.611 8.72742C155.366 8.72742 155.15 8.63422 154.964 8.44782C154.777 8.26142 154.694 7.98182 154.713 7.60902C154.723 7.54035 154.728 7.46677 154.728 7.38829C154.738 7.29999 154.743 7.2166 154.743 7.13812C154.743 6.95172 154.728 6.76042 154.699 6.56421C154.669 6.368 154.615 6.20612 154.537 6.07859C154.409 5.89219 154.228 5.79899 153.992 5.79899C153.649 5.79899 153.34 5.99029 153.065 6.3729C152.908 6.56911 152.761 6.82909 152.624 7.15284C152.496 7.46677 152.364 7.84448 152.226 8.28595C152.089 8.72742 151.962 9.23266 151.844 9.80167C151.726 10.3707 151.608 11.0231 151.491 11.7589C151.363 12.4848 151.27 13.1372 151.211 13.716C151.162 14.2851 151.137 14.7903 151.137 15.2318C151.137 15.6536 151.162 16.0264 151.211 16.3502C151.27 16.6641 151.353 16.9192 151.461 17.1154C151.569 17.292 151.697 17.4293 151.844 17.5274C152.001 17.6255 152.182 17.6746 152.388 17.6746C152.624 17.6746 152.84 17.6206 153.036 17.5127C153.301 17.3852 153.531 17.189 153.727 16.9241C153.933 16.6592 154.09 16.3845 154.198 16.1Z" fill="#FDFAE5"/>
<path d="M160.898 8.40367C161.311 8.40367 161.615 8.54102 161.811 8.81571C162.007 9.0806 162.105 9.41906 162.105 9.8311C162.105 10.0273 162.081 10.2235 162.032 10.4197C161.963 10.7337 161.83 10.9691 161.634 11.1261C161.448 11.2732 161.252 11.3468 161.046 11.3468C160.82 11.3468 160.619 11.2732 160.442 11.1261C160.276 10.9691 160.187 10.7386 160.177 10.4344V10.2873C160.177 10.2186 160.177 10.145 160.177 10.0665C160.177 9.97826 160.172 9.89977 160.163 9.8311C160.153 9.76242 160.133 9.70356 160.104 9.65451C160.084 9.60546 160.055 9.58093 160.016 9.58093C159.947 9.58093 159.878 9.61036 159.81 9.66923H159.824C159.736 9.75752 159.653 9.89487 159.574 10.0813C159.515 10.1892 159.461 10.3069 159.412 10.4344C159.363 10.562 159.324 10.6993 159.294 10.8465C159.265 10.9348 159.231 11.0721 159.191 11.2585C159.152 11.4351 159.113 11.6313 159.074 11.8472L158.941 12.6565C158.882 12.9999 158.833 13.2893 158.794 13.5247C158.765 13.7602 158.735 13.9613 158.706 14.1281C158.686 14.2949 158.667 14.4371 158.647 14.5548C158.627 14.6726 158.608 14.7854 158.588 14.8933C158.568 15.0012 158.549 15.114 158.529 15.2318C158.51 15.3397 158.485 15.477 158.456 15.6438C158.436 15.8106 158.407 16.0117 158.367 16.2472C158.338 16.4826 158.299 16.772 158.25 17.1154V17.1007C158.22 17.2871 158.21 17.3852 158.22 17.395C158.259 17.4931 158.313 17.5765 158.382 17.6451C158.402 17.6648 158.421 17.6893 158.441 17.7187C158.47 17.7482 158.505 17.7923 158.544 17.8512C158.593 17.9297 158.598 18.0032 158.559 18.0719C158.529 18.1406 158.475 18.1749 158.397 18.1749H155.807C155.719 18.1749 155.655 18.1357 155.616 18.0572C155.586 17.9787 155.596 17.9051 155.645 17.8365C155.733 17.7383 155.841 17.6451 155.969 17.5569C156.008 17.5176 156.042 17.4882 156.072 17.4686C156.111 17.4489 156.14 17.4293 156.16 17.4097C156.199 17.3312 156.234 17.2086 156.263 17.0418L156.969 12.5977V12.6124C157.018 12.2984 157.053 12.0336 157.072 11.8177C157.102 11.5921 157.117 11.4106 157.117 11.2732C157.117 11.0476 157.082 10.871 157.014 10.7435C156.945 10.6159 156.842 10.4884 156.704 10.3609H156.69C156.69 10.3412 156.685 10.3167 156.675 10.2873C156.665 10.2579 156.66 10.2333 156.66 10.2137V10.1548C156.66 10.1352 156.66 10.1156 156.66 10.096C156.67 10.0665 156.68 10.0322 156.69 9.99297C156.69 9.97335 156.7 9.94882 156.719 9.91939C156.739 9.88996 156.758 9.87034 156.778 9.86053L159.044 8.60969H159.353C159.412 8.60969 159.461 8.63422 159.5 8.68327C159.55 8.72251 159.569 8.77647 159.559 8.84514L159.5 9.15417C159.599 9.03645 159.692 8.93344 159.78 8.84514C159.878 8.75685 159.981 8.67837 160.089 8.60969C160.334 8.47235 160.604 8.40367 160.898 8.40367Z" fill="#FDFAE5"/>
<path d="M165.567 16.7769C165.577 16.8064 165.577 16.8456 165.567 16.8946C165.557 16.9339 165.543 16.9633 165.523 16.9829C165.444 17.081 165.361 17.1792 165.273 17.2773C165.184 17.3656 165.101 17.4538 165.023 17.5421H165.037C164.87 17.7187 164.66 17.8806 164.404 18.0278C164.297 18.0964 164.179 18.1455 164.051 18.1749C163.934 18.2043 163.806 18.2289 163.669 18.2485C163.492 18.2681 163.301 18.2485 163.095 18.1896C162.899 18.121 162.747 18.0179 162.639 17.8806C162.54 17.7433 162.467 17.5569 162.418 17.3214C162.379 17.0761 162.369 16.8014 162.388 16.4973C162.408 16.0853 162.447 15.6683 162.506 15.2465C162.565 14.8148 162.634 14.393 162.712 13.9809C162.742 13.8142 162.766 13.6572 162.786 13.51C162.815 13.3531 162.845 13.201 162.874 13.0538L162.948 12.5977V12.6124C163.036 11.9943 163.08 11.5479 163.08 11.2732C163.08 11.0476 163.046 10.871 162.977 10.7435C162.918 10.6159 162.82 10.4884 162.683 10.3609L162.653 10.3167C162.644 10.2971 162.639 10.2677 162.639 10.2284C162.639 10.199 162.639 10.1647 162.639 10.1254C162.639 10.0862 162.648 10.042 162.668 9.99297C162.668 9.97335 162.678 9.94882 162.697 9.91939C162.717 9.88996 162.737 9.87034 162.756 9.86053L163.492 9.44849C163.541 9.16398 163.576 9.01683 163.595 9.00702C163.615 8.99721 163.615 9.12474 163.595 9.38963L165.008 8.60969H165.332C165.39 8.60969 165.439 8.63422 165.479 8.68327C165.528 8.72251 165.543 8.77647 165.523 8.84514C165.474 9.1787 165.43 9.4583 165.39 9.68394C165.351 9.90958 165.317 10.1058 165.287 10.2726C165.268 10.4295 165.248 10.5669 165.229 10.6846C165.209 10.8023 165.194 10.9152 165.184 11.0231C165.165 11.131 165.145 11.2438 165.126 11.3615C165.116 11.4793 165.096 11.6264 165.067 11.803C165.037 11.9698 165.003 12.1709 164.964 12.4064C164.924 12.6418 164.875 12.9361 164.817 13.2893L164.758 13.7749C164.679 14.2262 164.601 14.6824 164.522 15.1435C164.454 15.6046 164.395 16.0411 164.346 16.4532C164.306 16.7279 164.321 16.9437 164.39 17.1007C164.419 17.1693 164.449 17.2037 164.478 17.2037C164.527 17.1939 164.581 17.1791 164.64 17.1595C164.709 17.1301 164.767 17.081 164.817 17.0124H164.802C164.929 16.8848 165.057 16.7328 165.184 16.5562C165.243 16.4875 165.307 16.463 165.376 16.4826C165.454 16.4924 165.503 16.5464 165.523 16.6445L165.567 16.7769ZM164.522 7.84447C164.189 7.84447 163.948 7.72675 163.801 7.4913C163.654 7.24604 163.58 6.96644 163.58 6.6525C163.58 6.4661 163.61 6.2748 163.669 6.07859C163.728 5.87257 163.811 5.69107 163.919 5.53411C164.037 5.37714 164.174 5.2496 164.331 5.1515C164.498 5.04358 164.689 4.98962 164.905 4.98962C165.238 4.98962 165.479 5.10735 165.626 5.3428C165.783 5.56844 165.861 5.83823 165.861 6.15217C165.861 6.34838 165.832 6.54949 165.773 6.75551C165.714 6.95172 165.626 7.13321 165.508 7.29999C165.39 7.45696 165.248 7.5894 165.081 7.69732C164.915 7.79542 164.728 7.84447 164.522 7.84447Z" fill="#FDFAE5"/>
<path d="M170.498 12.995C170.665 13.201 170.788 13.4463 170.866 13.7308C170.945 14.0055 170.984 14.29 170.984 14.5843C170.984 15.0061 170.91 15.4378 170.763 15.8793C170.626 16.3109 170.425 16.7033 170.16 17.0565C169.895 17.4097 169.571 17.6942 169.189 17.91C168.806 18.1161 168.374 18.2043 167.894 18.1749C167.648 18.1553 167.408 18.1062 167.173 18.0278C166.947 17.9493 166.741 17.8365 166.555 17.6893C166.378 17.5421 166.236 17.3606 166.128 17.1448C166.02 16.9192 165.966 16.6543 165.966 16.3502C165.966 16.154 165.995 15.9823 166.054 15.8351C166.113 15.688 166.192 15.5653 166.29 15.4672C166.388 15.3691 166.496 15.2955 166.613 15.2465C166.741 15.1974 166.869 15.1729 166.996 15.1729C167.212 15.1729 167.403 15.271 167.57 15.4672C167.747 15.6634 167.84 15.9136 167.85 16.2177C167.83 16.3845 167.815 16.5513 167.805 16.7181C167.805 16.8848 167.81 16.9977 167.82 17.0565C167.84 17.1841 167.864 17.3018 167.894 17.4097C167.923 17.5078 167.972 17.5716 168.041 17.601C168.168 17.6501 168.306 17.6353 168.453 17.5569C168.6 17.4686 168.733 17.341 168.85 17.1742C168.978 16.9977 169.081 16.7965 169.159 16.5709C169.238 16.3453 169.277 16.1147 169.277 15.8793C169.277 15.6831 169.243 15.4967 169.174 15.3201C169.115 15.1435 169.002 14.9865 168.836 14.8492C168.767 14.7903 168.688 14.7314 168.6 14.6726C168.512 14.6137 168.414 14.5499 168.306 14.4813C168.021 14.2949 167.742 14.079 167.467 13.8338C167.202 13.5885 167.001 13.2648 166.864 12.8625C166.815 12.7252 166.78 12.5829 166.761 12.4358C166.751 12.2886 166.746 12.1464 166.746 12.009C166.746 11.6755 166.79 11.3321 166.878 10.9789C166.976 10.6257 167.114 10.2971 167.29 9.99297C167.477 9.68885 167.702 9.42396 167.967 9.19832C168.242 8.96287 168.551 8.79609 168.894 8.69799C169.13 8.63912 169.375 8.60969 169.63 8.60969C169.787 8.60969 169.969 8.62441 170.175 8.65384C170.371 8.69308 170.557 8.75194 170.734 8.83043C170.92 8.8991 171.082 8.99721 171.219 9.12474C171.357 9.25228 171.465 9.40925 171.543 9.59565C171.622 9.78205 171.661 10.0028 171.661 10.2579C171.661 10.4541 171.632 10.6257 171.573 10.7729C171.514 10.9201 171.435 11.0427 171.337 11.1408C171.249 11.2389 171.141 11.3125 171.013 11.3615C170.896 11.4106 170.773 11.4351 170.646 11.4351C170.41 11.4351 170.199 11.3468 170.013 11.1702C169.826 10.9936 169.748 10.7288 169.777 10.3756C169.797 10.2088 169.807 10.0469 169.807 9.88996C169.817 9.72318 169.817 9.61036 169.807 9.5515C169.807 9.45339 169.787 9.37001 169.748 9.30133C169.679 9.23266 169.596 9.19832 169.498 9.19832C169.37 9.19832 169.248 9.23266 169.13 9.30133L169.145 9.28662C168.929 9.39453 168.762 9.59074 168.644 9.87525C168.536 10.1499 168.482 10.4344 168.482 10.7288C168.482 10.925 168.512 11.1163 168.571 11.3027C168.63 11.4793 168.713 11.6215 168.821 11.7294L168.806 11.7147C168.993 11.8815 169.213 12.0336 169.468 12.1709C169.655 12.2788 169.836 12.3965 170.013 12.5241C170.199 12.6516 170.361 12.8086 170.498 12.995Z" fill="#FDFAE5"/>
<path d="M175.267 16.7769C175.277 16.8064 175.277 16.8456 175.267 16.8946C175.258 16.9339 175.243 16.9633 175.223 16.9829C175.145 17.081 175.061 17.1792 174.973 17.2773C174.885 17.3656 174.801 17.4538 174.723 17.5421H174.738C174.571 17.7187 174.36 17.8806 174.105 18.0278C173.997 18.0964 173.879 18.1455 173.752 18.1749C173.634 18.2043 173.506 18.2289 173.369 18.2485C173.192 18.2681 173.001 18.2485 172.795 18.1896C172.599 18.121 172.447 18.0179 172.339 17.8806C172.241 17.7433 172.167 17.5569 172.118 17.3214C172.079 17.0761 172.069 16.8014 172.089 16.4973C172.108 16.0853 172.148 15.6683 172.206 15.2465C172.265 14.8148 172.334 14.393 172.412 13.9809C172.442 13.8142 172.466 13.6572 172.486 13.51C172.515 13.3531 172.545 13.201 172.574 13.0538L172.648 12.5977V12.6124C172.736 11.9943 172.78 11.5479 172.78 11.2732C172.78 11.0476 172.746 10.871 172.677 10.7435C172.619 10.6159 172.52 10.4884 172.383 10.3609L172.354 10.3167C172.344 10.2971 172.339 10.2677 172.339 10.2284C172.339 10.199 172.339 10.1647 172.339 10.1254C172.339 10.0862 172.349 10.042 172.368 9.99297C172.368 9.97335 172.378 9.94882 172.398 9.91939C172.417 9.88996 172.437 9.87034 172.457 9.86053L173.192 9.44849C173.241 9.16398 173.276 9.01683 173.295 9.00702C173.315 8.99721 173.315 9.12474 173.295 9.38963L174.708 8.60969H175.032C175.091 8.60969 175.14 8.63422 175.179 8.68327C175.228 8.72251 175.243 8.77647 175.223 8.84514C175.174 9.1787 175.13 9.4583 175.091 9.68394C175.052 9.90958 175.017 10.1058 174.988 10.2726C174.968 10.4295 174.948 10.5669 174.929 10.6846C174.909 10.8023 174.895 10.9152 174.885 11.0231C174.865 11.131 174.845 11.2438 174.826 11.3615C174.816 11.4793 174.796 11.6264 174.767 11.803C174.738 11.9698 174.703 12.1709 174.664 12.4064C174.625 12.6418 174.576 12.9361 174.517 13.2893L174.458 13.7749C174.379 14.2262 174.301 14.6824 174.223 15.1435C174.154 15.6046 174.095 16.0411 174.046 16.4532C174.007 16.7279 174.021 16.9437 174.09 17.1007C174.12 17.1693 174.149 17.2037 174.178 17.2037C174.227 17.1939 174.281 17.1791 174.34 17.1595C174.409 17.1301 174.468 17.081 174.517 17.0124H174.502C174.63 16.8848 174.757 16.7328 174.885 16.5562C174.944 16.4875 175.007 16.463 175.076 16.4826C175.155 16.4924 175.204 16.5464 175.223 16.6445L175.267 16.7769ZM174.223 7.84447C173.889 7.84447 173.649 7.72675 173.501 7.4913C173.354 7.24604 173.281 6.96644 173.281 6.6525C173.281 6.4661 173.31 6.2748 173.369 6.07859C173.428 5.87257 173.511 5.69107 173.619 5.53411C173.737 5.37714 173.874 5.2496 174.031 5.1515C174.198 5.04358 174.389 4.98962 174.605 4.98962C174.939 4.98962 175.179 5.10735 175.326 5.3428C175.483 5.56844 175.562 5.83823 175.562 6.15217C175.562 6.34838 175.532 6.54949 175.473 6.75551C175.414 6.95172 175.326 7.13321 175.208 7.29999C175.091 7.45696 174.948 7.5894 174.782 7.69732C174.615 7.79542 174.429 7.84447 174.223 7.84447Z" fill="#FDFAE5"/>
<path d="M180.199 12.995C180.365 13.201 180.488 13.4463 180.567 13.7308C180.645 14.0055 180.684 14.29 180.684 14.5843C180.684 15.0061 180.611 15.4378 180.464 15.8793C180.326 16.3109 180.125 16.7033 179.86 17.0565C179.595 17.4097 179.272 17.6942 178.889 17.91C178.506 18.1161 178.075 18.2043 177.594 18.1749C177.349 18.1553 177.108 18.1062 176.873 18.0278C176.647 17.9493 176.441 17.8365 176.255 17.6893C176.078 17.5421 175.936 17.3606 175.828 17.1448C175.72 16.9192 175.666 16.6543 175.666 16.3502C175.666 16.154 175.696 15.9823 175.755 15.8351C175.813 15.688 175.892 15.5653 175.99 15.4672C176.088 15.3691 176.196 15.2955 176.314 15.2465C176.441 15.1974 176.569 15.1729 176.696 15.1729C176.912 15.1729 177.104 15.271 177.27 15.4672C177.447 15.6634 177.54 15.9136 177.55 16.2177C177.53 16.3845 177.516 16.5513 177.506 16.7181C177.506 16.8848 177.511 16.9977 177.52 17.0565C177.54 17.1841 177.565 17.3018 177.594 17.4097C177.623 17.5078 177.673 17.5716 177.741 17.601C177.869 17.6501 178.006 17.6353 178.153 17.5569C178.3 17.4686 178.433 17.341 178.551 17.1742C178.678 16.9977 178.781 16.7965 178.86 16.5709C178.938 16.3453 178.977 16.1147 178.977 15.8793C178.977 15.6831 178.943 15.4967 178.874 15.3201C178.815 15.1435 178.703 14.9865 178.536 14.8492C178.467 14.7903 178.389 14.7314 178.3 14.6726C178.212 14.6137 178.114 14.5499 178.006 14.4813C177.722 14.2949 177.442 14.079 177.167 13.8338C176.902 13.5885 176.701 13.2648 176.564 12.8625C176.515 12.7252 176.481 12.5829 176.461 12.4358C176.451 12.2886 176.446 12.1464 176.446 12.009C176.446 11.6755 176.49 11.3321 176.579 10.9789C176.677 10.6257 176.814 10.2971 176.991 9.99297C177.177 9.68885 177.403 9.42396 177.668 9.19832C177.942 8.96287 178.251 8.79609 178.595 8.69799C178.83 8.63912 179.075 8.60969 179.33 8.60969C179.487 8.60969 179.669 8.62441 179.875 8.65384C180.071 8.69308 180.258 8.75194 180.434 8.83043C180.621 8.8991 180.782 8.99721 180.92 9.12474C181.057 9.25228 181.165 9.40925 181.244 9.59565C181.322 9.78205 181.361 10.0028 181.361 10.2579C181.361 10.4541 181.332 10.6257 181.273 10.7729C181.214 10.9201 181.136 11.0427 181.038 11.1408C180.949 11.2389 180.841 11.3125 180.714 11.3615C180.596 11.4106 180.473 11.4351 180.346 11.4351C180.11 11.4351 179.899 11.3468 179.713 11.1702C179.527 10.9936 179.448 10.7288 179.478 10.3756C179.497 10.2088 179.507 10.0469 179.507 9.88996C179.517 9.72318 179.517 9.61036 179.507 9.5515C179.507 9.45339 179.487 9.37001 179.448 9.30133C179.38 9.23266 179.296 9.19832 179.198 9.19832C179.071 9.19832 178.948 9.23266 178.83 9.30133L178.845 9.28662C178.629 9.39453 178.462 9.59074 178.345 9.87525C178.237 10.1499 178.183 10.4344 178.183 10.7288C178.183 10.925 178.212 11.1163 178.271 11.3027C178.33 11.4793 178.413 11.6215 178.521 11.7294L178.506 11.7147C178.693 11.8815 178.914 12.0336 179.169 12.1709C179.355 12.2788 179.537 12.3965 179.713 12.5241C179.899 12.6516 180.061 12.8086 180.199 12.995Z" fill="#FDFAE5"/>
<path d="M109.759 16.0803C109.847 15.8645 109.95 15.7026 110.068 15.5947C110.185 15.4868 110.288 15.4328 110.377 15.4328C110.514 15.4328 110.612 15.5162 110.671 15.683C110.73 15.8399 110.7 16.0754 110.583 16.3893C110.416 16.7719 110.2 17.1055 109.935 17.39C109.67 17.6745 109.351 17.8903 108.979 18.0375H108.993C108.65 18.1846 108.228 18.2582 107.728 18.2582C106.835 18.2582 106.143 17.9688 105.653 17.39V17.4047C105.152 16.8259 104.843 16.0411 104.726 15.0502C104.706 14.8834 104.691 14.7117 104.682 14.5351C104.672 14.3487 104.667 14.1623 104.667 13.976C104.667 13.613 104.682 13.2402 104.711 12.8576C104.75 12.4651 104.799 12.0629 104.858 11.6509C104.966 11.0328 105.099 10.4491 105.255 9.89969C105.412 9.3405 105.604 8.81073 105.829 8.31039C106.261 7.34897 106.815 6.58865 107.492 6.02946C107.826 5.74495 108.189 5.53403 108.581 5.39668C108.974 5.25933 109.391 5.19066 109.832 5.19066C110.107 5.19066 110.347 5.22009 110.553 5.27895C110.769 5.32801 110.975 5.39668 111.171 5.48497C111.318 5.57327 111.456 5.691 111.583 5.83815C111.711 5.9755 111.819 6.13247 111.907 6.30906C112.005 6.48564 112.079 6.67695 112.128 6.88297C112.187 7.07918 112.216 7.27539 112.216 7.4716C112.216 7.67762 112.187 7.85911 112.128 8.01608C112.069 8.17305 111.985 8.30549 111.878 8.41341C111.779 8.51151 111.667 8.58509 111.539 8.63414C111.421 8.68319 111.299 8.70772 111.171 8.70772C110.926 8.70772 110.71 8.61452 110.524 8.42812C110.337 8.24172 110.254 7.96212 110.274 7.58932C110.283 7.52065 110.288 7.44707 110.288 7.36859C110.298 7.28029 110.303 7.1969 110.303 7.11842C110.303 6.93202 110.288 6.74072 110.259 6.54451C110.229 6.3483 110.175 6.18642 110.097 6.05889C109.969 5.87249 109.788 5.77929 109.552 5.77929C109.209 5.77929 108.9 5.97059 108.625 6.3532C108.468 6.54941 108.321 6.80939 108.184 7.13314C108.056 7.44707 107.924 7.82478 107.787 8.26625C107.649 8.70772 107.522 9.21296 107.404 9.78197C107.286 10.351 107.169 11.0034 107.051 11.7392C106.923 12.4651 106.83 13.1175 106.771 13.6964C106.722 14.2654 106.698 14.7706 106.698 15.2121C106.698 15.6339 106.722 16.0067 106.771 16.3305C106.83 16.6444 106.913 16.8995 107.021 17.0957C107.129 17.2723 107.257 17.4096 107.404 17.5077C107.561 17.6058 107.742 17.6549 107.948 17.6549C108.184 17.6549 108.4 17.6009 108.596 17.493C108.861 17.3655 109.091 17.1693 109.288 16.9044C109.494 16.6395 109.651 16.3648 109.759 16.0803Z" fill="#FDFAE5"/>
<path d="M118.006 16.7278C118.016 16.7572 118.016 16.7965 118.006 16.8455C118.006 16.8848 117.996 16.9142 117.977 16.9338L117.476 17.493C117.398 17.5911 117.305 17.6843 117.197 17.7726C117.099 17.8511 116.996 17.9149 116.888 17.9639C116.652 18.1111 116.397 18.1994 116.123 18.2288C115.74 18.2778 115.431 18.1552 115.196 17.8609H115.21C115.102 17.7334 115.024 17.547 114.975 17.3017C114.936 17.0564 114.921 16.7867 114.931 16.4923C114.862 16.6591 114.793 16.8161 114.725 16.9632C114.656 17.1006 114.587 17.2232 114.519 17.3311C114.136 17.8903 113.69 18.2092 113.179 18.2877C112.758 18.3367 112.419 18.2337 112.164 17.9786C112.027 17.8511 111.909 17.6941 111.811 17.5077C111.713 17.3115 111.634 17.0957 111.575 16.8602C111.526 16.664 111.492 16.4531 111.472 16.2275C111.463 15.992 111.458 15.7566 111.458 15.5211C111.458 15.1091 111.487 14.6823 111.546 14.2408C111.615 13.7896 111.708 13.3481 111.826 12.9164C111.953 12.4749 112.105 12.0482 112.282 11.6361C112.458 11.2143 112.655 10.8268 112.87 10.4736H112.856C113.013 10.2185 113.179 9.98799 113.356 9.78197C113.533 9.57595 113.724 9.38955 113.93 9.22277C114.352 8.86959 114.808 8.66357 115.299 8.60471C115.446 8.58509 115.583 8.58018 115.711 8.58999C115.838 8.5998 115.946 8.62924 116.034 8.67829C116.123 8.72734 116.196 8.77149 116.255 8.81073C116.314 8.84016 116.368 8.88921 116.417 8.95789L117.844 8.58999C117.913 8.57037 117.972 8.58509 118.021 8.63414C118.08 8.68319 118.099 8.74696 118.08 8.82545L117.035 14.6087C117.015 14.6578 117.001 14.7215 116.991 14.8C116.981 14.8687 116.966 14.9423 116.947 15.0208C116.937 15.0404 116.927 15.0698 116.917 15.1091C116.917 15.1385 116.917 15.163 116.917 15.1826C116.917 15.2906 116.907 15.4083 116.888 15.5358C116.868 15.6535 116.849 15.7516 116.829 15.8301C116.829 15.889 116.824 15.9479 116.814 16.0067C116.814 16.0558 116.814 16.1048 116.814 16.1539C116.795 16.252 116.785 16.3305 116.785 16.3893C116.785 16.5365 116.79 16.6738 116.8 16.8014C116.809 16.9191 116.824 17.0123 116.844 17.081C116.863 17.1398 116.888 17.1693 116.917 17.1693C117.035 17.1693 117.148 17.1006 117.256 16.9632C117.324 16.8848 117.388 16.8112 117.447 16.7425C117.506 16.6738 117.57 16.5954 117.638 16.5071C117.687 16.4384 117.746 16.4139 117.815 16.4335C117.893 16.4531 117.942 16.5022 117.962 16.5806L118.006 16.7278ZM116.034 9.35521L115.902 9.23749L115.917 9.2522C115.828 9.20315 115.745 9.18843 115.666 9.20805C115.549 9.21786 115.431 9.26692 115.313 9.35521C115.205 9.43369 115.102 9.5269 115.004 9.63481C114.808 9.9095 114.607 10.2872 114.401 10.7679C114.273 11.0917 114.151 11.4694 114.033 11.901C113.915 12.3229 113.812 12.7644 113.724 13.2254C113.636 13.6865 113.562 14.1476 113.503 14.6087C113.454 15.0698 113.43 15.4966 113.43 15.889C113.43 16.1637 113.444 16.409 113.474 16.6248C113.503 16.8308 113.552 16.978 113.621 17.0663H113.606C113.675 17.1153 113.724 17.1349 113.753 17.1251C113.881 17.1153 114.008 17.027 114.136 16.8602C114.214 16.7621 114.283 16.6542 114.342 16.5365C114.401 16.409 114.465 16.2618 114.533 16.095C114.69 15.732 114.813 15.3936 114.901 15.0796C114.94 14.9227 114.98 14.7608 115.019 14.594C115.058 14.4272 115.097 14.231 115.137 14.0054L116.034 9.35521Z" fill="#FDFAE5"/>
<path d="M123.127 8.38397C123.539 8.38397 123.843 8.52132 124.039 8.79601C124.235 9.0609 124.333 9.39936 124.333 9.8114C124.333 10.0076 124.309 10.2038 124.26 10.4C124.191 10.714 124.059 10.9494 123.863 11.1064C123.676 11.2535 123.48 11.3271 123.274 11.3271C123.048 11.3271 122.847 11.2535 122.671 11.1064C122.504 10.9494 122.415 10.7189 122.406 10.4147V10.2676C122.406 10.1989 122.406 10.1253 122.406 10.0469C122.406 9.95856 122.401 9.88007 122.391 9.8114C122.381 9.74273 122.361 9.68386 122.332 9.63481C122.312 9.58576 122.283 9.56123 122.244 9.56123C122.175 9.56123 122.106 9.59066 122.038 9.64953H122.052C121.964 9.73782 121.881 9.87517 121.802 10.0616C121.743 10.1695 121.689 10.2872 121.64 10.4147C121.591 10.5423 121.552 10.6796 121.523 10.8268C121.493 10.9151 121.459 11.0524 121.42 11.2388C121.38 11.4154 121.341 11.6116 121.302 11.8275L121.17 12.6368C121.111 12.9802 121.062 13.2696 121.022 13.505C120.993 13.7405 120.964 13.9416 120.934 14.1084C120.914 14.2752 120.895 14.4174 120.875 14.5351C120.856 14.6529 120.836 14.7657 120.816 14.8736C120.797 14.9815 120.777 15.0943 120.757 15.2121C120.738 15.32 120.713 15.4573 120.684 15.6241C120.664 15.7909 120.635 15.992 120.596 16.2275C120.566 16.4629 120.527 16.7523 120.478 17.0957V17.081C120.448 17.2674 120.439 17.3655 120.448 17.3753C120.488 17.4734 120.542 17.5568 120.61 17.6255C120.63 17.6451 120.65 17.6696 120.669 17.699C120.699 17.7285 120.733 17.7726 120.772 17.8315C120.821 17.91 120.826 17.9835 120.787 18.0522C120.757 18.1209 120.704 18.1552 120.625 18.1552H118.035C117.947 18.1552 117.883 18.116 117.844 18.0375C117.814 17.959 117.824 17.8854 117.873 17.8168C117.961 17.7187 118.069 17.6255 118.197 17.5372C118.236 17.4979 118.271 17.4685 118.3 17.4489C118.339 17.4292 118.369 17.4096 118.388 17.39C118.427 17.3115 118.462 17.1889 118.491 17.0221L119.198 12.578V12.5927C119.247 12.2787 119.281 12.0139 119.301 11.798C119.33 11.5724 119.345 11.3909 119.345 11.2535C119.345 11.0279 119.31 10.8513 119.242 10.7238C119.173 10.5962 119.07 10.4687 118.933 10.3412H118.918C118.918 10.3215 118.913 10.297 118.903 10.2676C118.893 10.2382 118.889 10.2136 118.889 10.194V10.1351C118.889 10.1155 118.889 10.0959 118.889 10.0763C118.898 10.0469 118.908 10.0125 118.918 9.97327C118.918 9.95365 118.928 9.92912 118.947 9.89969C118.967 9.87026 118.987 9.85064 119.006 9.84083L121.273 8.58999H121.582C121.64 8.58999 121.689 8.61452 121.729 8.66357C121.778 8.70281 121.797 8.75677 121.788 8.82545L121.729 9.13448C121.827 9.01675 121.92 8.91374 122.008 8.82545C122.106 8.73715 122.209 8.65867 122.317 8.58999C122.563 8.45265 122.832 8.38397 123.127 8.38397Z" fill="#FDFAE5"/>
<path d="M130.583 16.7572C130.603 16.8357 130.593 16.9044 130.554 16.9632C130.476 17.0613 130.392 17.1595 130.304 17.2576C130.225 17.3459 130.142 17.4341 130.054 17.5224C129.965 17.6304 129.867 17.7236 129.759 17.802C129.661 17.8707 129.558 17.9394 129.45 18.0081C129.342 18.0767 129.225 18.1258 129.097 18.1552C128.97 18.1846 128.837 18.2092 128.7 18.2288C128.513 18.2484 128.322 18.2288 128.126 18.1699C127.93 18.1013 127.778 17.9983 127.67 17.8609C127.591 17.753 127.532 17.6205 127.493 17.4636C127.464 17.2968 127.439 17.1153 127.42 16.9191C127.341 17.0564 127.268 17.184 127.199 17.3017C127.14 17.4096 127.071 17.5077 126.993 17.596C126.816 17.802 126.625 17.9639 126.419 18.0816C126.213 18.1994 125.997 18.2582 125.771 18.2582C125.242 18.2582 124.825 18.0669 124.521 17.6843C124.226 17.3213 124.05 16.7621 123.991 16.0067C123.981 15.9282 123.976 15.8399 123.976 15.7418C123.976 15.6437 123.976 15.5456 123.976 15.4475C123.976 15.1434 123.991 14.8049 124.02 14.4321C124.05 14.0593 124.099 13.6669 124.167 13.2549C124.256 12.7349 124.359 12.2395 124.476 11.7686C124.594 11.2879 124.722 10.8807 124.859 10.5472C125.134 9.83102 125.467 9.29144 125.86 8.92845C126.282 8.56547 126.738 8.38397 127.228 8.38397C127.719 8.38397 128.092 8.60961 128.347 9.0609C128.366 9.10995 128.386 9.16391 128.406 9.22277C128.435 9.27182 128.459 9.32088 128.479 9.36993L128.582 8.79601V8.81073C128.67 8.18286 128.715 7.72177 128.715 7.42745C128.715 7.20181 128.68 7.03013 128.612 6.9124C128.553 6.79467 128.459 6.67204 128.332 6.54451H128.317C128.307 6.52489 128.298 6.50036 128.288 6.47093C128.278 6.43169 128.273 6.40225 128.273 6.38263V6.32377C128.273 6.27472 128.278 6.23057 128.288 6.19133C128.298 6.1619 128.307 6.13737 128.317 6.11775C128.337 6.08832 128.356 6.06379 128.376 6.04417L130.642 4.79333H130.966C131.035 4.79333 131.089 4.81786 131.128 4.86691C131.167 4.91597 131.177 4.97483 131.157 5.0435C130.942 6.42678 130.726 7.80025 130.51 9.16391C130.304 10.5276 130.088 11.8961 129.862 13.2696L129.774 13.7552C129.705 14.2065 129.632 14.6627 129.553 15.1238C129.485 15.5849 129.426 16.0214 129.377 16.4335C129.367 16.5708 129.367 16.6984 129.377 16.8161C129.387 16.9338 129.406 17.027 129.436 17.0957C129.445 17.1545 129.47 17.184 129.509 17.184C129.558 17.1742 129.607 17.1595 129.656 17.1398C129.715 17.1104 129.774 17.0613 129.833 16.9927C130.01 16.8161 130.137 16.6689 130.216 16.5512C130.265 16.4825 130.323 16.4531 130.392 16.4629C130.471 16.4727 130.525 16.5218 130.554 16.6101L130.583 16.7572ZM127.111 16.3893C127.248 16.0165 127.385 15.5456 127.523 14.9766C127.66 14.4076 127.787 13.7552 127.905 13.0194C127.974 12.5878 128.028 12.1855 128.067 11.8127C128.106 11.4399 128.126 11.1113 128.126 10.8268C128.146 10.248 128.101 9.82612 127.993 9.56123C127.905 9.33559 127.783 9.22277 127.626 9.22277C127.478 9.22277 127.326 9.3454 127.169 9.59066V9.57595C127.081 9.7231 126.993 9.9046 126.905 10.1204C126.816 10.3363 126.733 10.5913 126.654 10.8856C126.576 11.1603 126.497 11.4841 126.419 11.8569C126.35 12.2199 126.277 12.6368 126.198 13.1077C126.12 13.6179 126.056 14.0839 126.007 14.5057C125.968 14.9178 125.938 15.2857 125.919 15.6094V16.095C125.919 16.3108 125.923 16.5022 125.933 16.6689C125.943 16.8259 125.963 16.9583 125.992 17.0663C126.061 17.3017 126.159 17.4194 126.286 17.4194C126.561 17.4194 126.836 17.0761 127.111 16.3893Z" fill="#FDFAE5"/>
<path d="M135.73 12.9753C135.897 13.1813 136.02 13.4266 136.098 13.7111C136.177 13.9858 136.216 14.2703 136.216 14.5646C136.216 14.9864 136.142 15.4181 135.995 15.8596C135.858 16.2912 135.657 16.6836 135.392 17.0368C135.127 17.39 134.803 17.6745 134.42 17.8903C134.038 18.0964 133.606 18.1846 133.125 18.1552C132.88 18.1356 132.64 18.0865 132.404 18.0081C132.179 17.9296 131.973 17.8168 131.786 17.6696C131.61 17.5224 131.468 17.3409 131.36 17.1251C131.252 16.8995 131.198 16.6346 131.198 16.3305C131.198 16.1343 131.227 15.9626 131.286 15.8154C131.345 15.6683 131.423 15.5456 131.521 15.4475C131.62 15.3494 131.727 15.2758 131.845 15.2268C131.973 15.1777 132.1 15.1532 132.228 15.1532C132.444 15.1532 132.635 15.2513 132.802 15.4475C132.978 15.6437 133.072 15.8939 133.081 16.198C133.062 16.3648 133.047 16.5316 133.037 16.6984C133.037 16.8651 133.042 16.978 133.052 17.0368C133.072 17.1644 133.096 17.2821 133.125 17.39C133.155 17.4881 133.204 17.5519 133.273 17.5813C133.4 17.6304 133.538 17.6156 133.685 17.5372C133.832 17.4489 133.964 17.3213 134.082 17.1545C134.21 16.978 134.313 16.7768 134.391 16.5512C134.47 16.3256 134.509 16.095 134.509 15.8596C134.509 15.6634 134.474 15.477 134.406 15.3004C134.347 15.1238 134.234 14.9668 134.067 14.8295C133.999 14.7706 133.92 14.7117 133.832 14.6529C133.744 14.594 133.645 14.5302 133.538 14.4616C133.253 14.2752 132.973 14.0593 132.699 13.8141C132.434 13.5688 132.233 13.2451 132.095 12.8428C132.046 12.7055 132.012 12.5632 131.992 12.4161C131.983 12.2689 131.978 12.1267 131.978 11.9893C131.978 11.6558 132.022 11.3124 132.11 10.9592C132.208 10.606 132.346 10.2774 132.522 9.97327C132.709 9.66915 132.934 9.40426 133.199 9.17862C133.474 8.94317 133.783 8.77639 134.126 8.67829C134.362 8.61943 134.607 8.58999 134.862 8.58999C135.019 8.58999 135.2 8.60471 135.406 8.63414C135.603 8.67338 135.789 8.73225 135.966 8.81073C136.152 8.8794 136.314 8.97751 136.451 9.10504C136.589 9.23258 136.696 9.38955 136.775 9.57595C136.853 9.76235 136.893 9.98308 136.893 10.2382C136.893 10.4344 136.863 10.606 136.804 10.7532C136.746 10.9004 136.667 11.023 136.569 11.1211C136.481 11.2192 136.373 11.2928 136.245 11.3418C136.127 11.3909 136.005 11.4154 135.877 11.4154C135.642 11.4154 135.431 11.3271 135.245 11.1505C135.058 10.9739 134.98 10.7091 135.009 10.3559C135.029 10.1891 135.039 10.0272 135.039 9.87026C135.048 9.70348 135.048 9.59066 135.039 9.5318C135.039 9.4337 135.019 9.35031 134.98 9.28163C134.911 9.21296 134.828 9.17862 134.729 9.17862C134.602 9.17862 134.479 9.21296 134.362 9.28163L134.376 9.26692C134.16 9.37483 133.994 9.57104 133.876 9.85555C133.768 10.1302 133.714 10.4147 133.714 10.7091C133.714 10.9053 133.744 11.0966 133.802 11.283C133.861 11.4596 133.945 11.6018 134.053 11.7097L134.038 11.695C134.224 11.8618 134.445 12.0139 134.7 12.1512C134.886 12.2591 135.068 12.3768 135.245 12.5044C135.431 12.6319 135.593 12.7889 135.73 12.9753Z" fill="#FDFAE5"/>
<path d="M143.218 10.2406C143.389 10.4361 143.514 10.6952 143.592 11.0177C143.675 11.3354 143.717 11.6873 143.717 12.0734C143.717 12.4253 143.685 12.7894 143.621 13.1657C143.558 13.5421 143.465 13.9062 143.342 14.2581C143.225 14.6051 143.081 14.9252 142.909 15.2184C142.738 15.5068 142.545 15.7414 142.33 15.9222C141.997 16.2008 141.63 16.3401 141.229 16.3401C140.798 16.3401 140.456 16.1984 140.201 15.9149C140.035 15.7194 139.913 15.4628 139.834 15.1451C139.756 14.8275 139.717 14.478 139.717 14.0968C139.717 13.7449 139.749 13.3783 139.812 12.9971C139.876 12.6159 139.966 12.2518 140.084 11.9048C140.206 11.5529 140.351 11.2328 140.517 10.9444C140.688 10.6512 140.881 10.4141 141.097 10.2333C141.42 9.95961 141.796 9.82276 142.227 9.82276C142.638 9.82276 142.968 9.9645 143.218 10.248V10.2406ZM141.963 15.3797C142.061 15.1598 142.153 14.8739 142.242 14.522C142.335 14.1701 142.415 13.7962 142.484 13.4003C142.557 12.9996 142.616 12.6037 142.66 12.2127C142.704 11.8168 142.726 11.4698 142.726 11.1717C142.726 11.0984 142.723 11.0251 142.719 10.9518C142.714 10.8784 142.706 10.8125 142.697 10.7538C142.667 10.5192 142.609 10.3555 142.52 10.2626C142.452 10.1649 142.352 10.116 142.22 10.116C142.151 10.116 142.083 10.1307 142.014 10.16C141.946 10.1893 141.882 10.2284 141.823 10.2773C141.769 10.3311 141.711 10.4044 141.647 10.4972C141.588 10.5901 141.535 10.6878 141.486 10.7905C141.422 10.9371 141.358 11.1155 141.295 11.3256C141.231 11.5309 141.17 11.7557 141.111 12.0001C141.058 12.2396 141.006 12.4913 140.957 12.7552C140.908 13.0191 140.867 13.2806 140.832 13.5396C140.798 13.7987 140.771 14.0504 140.752 14.2947C140.732 14.5342 140.722 14.7517 140.722 14.9472C140.722 15.0352 140.725 15.1183 140.73 15.1965C140.735 15.2698 140.742 15.3406 140.752 15.4091C140.781 15.6437 140.837 15.8098 140.921 15.9076C140.994 16.0004 141.099 16.0469 141.236 16.0469C141.373 16.0469 141.5 15.9955 141.618 15.8929C141.75 15.7707 141.865 15.5997 141.963 15.3797Z" fill="#FDFAE5"/>
<path d="M147.026 10.4019C147.026 10.6023 146.972 10.7538 146.864 10.8564C146.757 10.9542 146.639 11.0031 146.512 11.0031C146.404 11.0031 146.306 10.9518 146.218 10.8491C146.135 10.7465 146.091 10.617 146.086 10.4606C146.096 10.3775 146.101 10.2944 146.101 10.2113C146.101 10.1282 146.101 10.072 146.101 10.0427C146.096 9.98405 146.081 9.93762 146.057 9.90341C146.033 9.86431 146.003 9.84476 145.969 9.84476C145.91 9.84476 145.861 9.89852 145.822 10.006C145.768 10.1527 145.707 10.4141 145.639 10.7905L145.521 11.5236H146.138C146.201 11.5236 146.233 11.5578 146.233 11.6262L146.218 11.7142C146.218 11.7386 146.209 11.7631 146.189 11.7875C146.17 11.807 146.147 11.8168 146.123 11.8168H145.477C145.394 12.3202 145.311 12.8334 145.228 13.3564C145.149 13.8744 145.071 14.3851 144.993 14.8885L144.934 15.2624C144.91 15.4384 144.88 15.6265 144.846 15.8269C144.817 16.0273 144.78 16.2253 144.736 16.4207C144.692 16.6211 144.641 16.8093 144.582 16.9852C144.528 17.1661 144.464 17.3225 144.391 17.4544C144.308 17.6059 144.215 17.7355 144.112 17.843C144.009 17.9554 143.902 18.0434 143.789 18.1069C143.569 18.2242 143.319 18.2828 143.041 18.2828H142.931C142.906 18.2828 142.886 18.2731 142.872 18.2535C142.852 18.234 142.842 18.2095 142.842 18.1802L142.857 18.0996C142.857 18.0702 142.867 18.0458 142.886 18.0263C142.901 18.0067 142.921 17.9969 142.945 17.9969H142.989C143.097 17.9969 143.19 17.9578 143.268 17.8796C143.307 17.8405 143.349 17.7843 143.393 17.711C143.437 17.6377 143.479 17.5522 143.518 17.4544C143.557 17.342 143.596 17.2003 143.635 17.0292C143.674 16.8631 143.711 16.6847 143.745 16.4941C143.779 16.3035 143.811 16.1104 143.841 15.9149C143.875 15.7145 143.904 15.5288 143.929 15.3577C143.938 15.2747 143.951 15.1965 143.965 15.1231C143.98 15.0449 143.992 14.9643 144.002 14.8812L144.486 11.8168H144.119C144.095 11.8168 144.073 11.807 144.053 11.7875C144.039 11.7631 144.031 11.7386 144.031 11.7142L144.046 11.6262C144.046 11.5969 144.053 11.5725 144.068 11.5529C144.088 11.5334 144.11 11.5236 144.134 11.5236H144.53L144.567 11.2963C144.665 10.744 144.824 10.3213 145.044 10.028V10.0354C145.132 9.89852 145.255 9.78855 145.411 9.70547L145.404 9.7128C145.507 9.65415 145.609 9.61261 145.712 9.58817C145.82 9.56373 145.922 9.55151 146.02 9.55151C146.216 9.55151 146.397 9.59061 146.563 9.66881C146.695 9.72746 146.806 9.81788 146.894 9.94006C146.982 10.0574 147.026 10.2113 147.026 10.4019Z" fill="#FDFAE5"/>
<rect x="129.667" y="22.4922" width="26.6374" height="9.2367" rx="1.78775" fill="#FDFAE5" stroke="#FDFAE5" stroke-width="0.893874"/>
<circle cx="151.421" cy="27.1367" r="3.0355" transform="rotate(90 151.421 27.1367)" fill="#CD302F"/>
<circle cx="147.219" cy="27.1367" r="3.0355" transform="rotate(90 147.219 27.1367)" fill="#CA840C"/>
<circle cx="143.015" cy="27.1368" r="3.0355" transform="rotate(90 143.015 27.1368)" fill="#4190A9"/>
<circle cx="138.813" cy="27.1368" r="3.0355" transform="rotate(90 138.813 27.1368)" fill="#D9AD1F"/>
<circle cx="134.609" cy="27.1368" r="3.0355" transform="rotate(90 134.609 27.1368)" fill="#399B2C"/>
<path d="M40.2532 22.7947H41.1049V31.5936H40.2532V22.7947Z" fill="#FDFAE5"/>
<path d="M40.9882 20.1358H40.2532V16.4016H40.9882V15.6897H41.7116V14.9662H43.9984V15.6897H44.7102V16.4016H45.4335V17.2534H44.5935V16.5299H43.8701V15.8064H41.8283V16.5299H41.1166V20.0191H41.8283V20.731H43.8701V20.0191H44.5935V19.2956H45.4335V20.1358H44.7102V20.8593H43.9984V21.5945H41.7116V20.8593H40.9882V20.1358Z" fill="#FDFAE5"/>
<path d="M45.9002 12.7957H46.7636V15.6897H47.3586V14.9662H49.6455V15.6897H50.3572V16.4016H51.0806V21.5945H50.2405V16.5299H49.5171V15.8064H47.4753V16.5299H46.7636V21.5945H45.9002V12.7957Z" fill="#FDFAE5"/>
<path d="M51.5706 18.5721H52.3056V17.8486H55.1875V15.8064H52.434V17.2534H51.5706V15.6897H52.3056V14.9662H55.3159V15.6897H56.0276V20.731H56.751V21.5945H55.9109V20.8593H54.5925V21.5945H52.3056V20.8593H51.5706V18.5721ZM54.4641 20.731V20.0191H55.1875V18.7005H52.434V20.731H54.4641Z" fill="#FDFAE5"/>
<path d="M57.0311 14.9661H57.8945V15.6896H58.4895V14.9661H60.7764V15.6896H61.4881V16.4014H62.2115V21.5944H61.3714V16.5298H60.648V15.8063H58.6062V16.5298H57.8945V21.5944H57.0311V14.9661Z" fill="#FDFAE5"/>
<path d="M62.6549 20.0657H63.39V19.4589H62.6549V18.6186H63.39V18.0235H62.6549V15.7363H63.39V15.0127H66.4002V15.7363H66.9952V15.0127H67.8353V15.8529H67.1119V18.0235H66.4002V18.747H63.5183V19.3422H67.1119V20.0657H67.8353V21.6411H67.1119V22.3646H63.39V21.6411H62.6549V20.0657ZM66.2719 17.8951V15.8529H63.5183V17.8951H66.2719ZM66.9952 21.501V20.1824H63.5183V21.501H66.9952Z" fill="#FDFAE5"/>
<path d="M68.7336 20.1824H67.9985V16.4481H68.7336V15.7363H69.457V15.0127H71.7438V15.7363H72.4555V16.4481H73.1789V18.747H68.8619V20.0657H69.5737V20.7775H71.6155V20.0657H72.3389V19.3422H73.1789V20.1824H72.4555V20.9059H71.7438V21.6411H69.457V20.9059H68.7336V20.1824ZM72.3389 17.8951V16.5765H71.6155V15.8529H69.5737V16.5765H68.8619V17.8951H72.3389Z" fill="#FDFAE5"/>
<path d="M41.7116 6.51259H40.2532V5.67237H41.7116V3.50183H42.5517V5.67237H44.7102V6.51259H42.5517V11.4372H44.7102V12.3007H42.4233V11.5655H41.7116V6.51259Z" fill="#FDFAE5"/>
<path d="M45.1541 3.50183H46.0175V6.39589H46.6125V5.67237H48.8993V6.39589H49.611V7.10773H50.3344V12.3007H49.4944V7.2361H48.771V6.51259H46.7292V7.2361H46.0175V12.3007H45.1541V3.50183Z" fill="#FDFAE5"/>
<path d="M51.5362 10.842H50.8011V7.10773H51.5362V6.39589H52.2596V5.67237H54.5464V6.39589H55.2581V7.10773H55.9815V9.40664H51.6645V10.7253H52.3762V11.4372H54.418V10.7253H55.1414V10.0018H55.9815V10.842H55.2581V11.5655H54.5464V12.3007H52.2596V11.5655H51.5362V10.842ZM55.1414 8.55476V7.2361H54.418V6.51259H52.3762V7.2361H51.6645V8.55476H55.1414Z" fill="#FDFAE5"/>
<path d="M41.7115 28.5712H42.4466V27.8477H45.3285V25.8055H42.5749V27.2525H41.7115V25.6888H42.4466V24.9653H45.4568V25.6888H46.1685V30.7301H46.8919V31.5936H46.0518V30.8584H44.7334V31.5936H42.4466V30.8584H41.7115V28.5712ZM44.6051 30.7301V30.0182H45.3285V28.6995H42.5749V30.7301H44.6051Z" fill="#FDFAE5"/>
<path d="M47.1953 22.7947H48.0587V25.6888H48.6537V24.9652H50.9405V25.6888H51.6522V26.4006H52.3756V30.1349H51.6522V30.8584H50.9405V31.5936H48.6537V30.8584H48.0587V31.5936H47.1953V22.7947ZM48.7704 30.0182V30.73H50.8122V30.0182H51.5356V26.529H50.8122V25.8055H48.7704V26.529H48.0587V30.0182H48.7704Z" fill="#FDFAE5"/>
<path d="M14.2192 20.0601L4.74825 25.9478C2.68199 27.232 4.91938e-05 25.7572 4.89823e-05 23.3368L4.79533e-05 11.5608C4.77418e-05 9.14044 2.68199 7.66504 4.74825 8.94992L14.2192 14.8376C16.1605 16.0446 16.1605 18.853 14.2192 20.0601Z" fill="#FFD447"/>
<path d="M20.8494 20.0601L30.3204 25.9478C32.3866 27.232 35.0686 25.7572 35.0686 23.3368L35.0686 11.5608C35.0686 9.14044 32.3866 7.66504 30.3204 8.94992L20.8494 14.8376C18.9081 16.0446 18.9081 18.853 20.8494 20.0601Z" fill="#FFD447"/>
<path d="M14.9159 14.2265L9.13723 4.75069C7.87676 2.68337 9.32421 5.08628e-05 11.6998 5.05511e-05L23.2577 4.90347e-05C25.6332 4.8723e-05 27.0813 2.68336 25.8202 4.75069L20.0416 14.2265C18.8569 16.1688 16.1005 16.1688 14.9159 14.2265Z" fill="#FFD447"/>
<path d="M14.9159 20.8431L9.13722 30.3189C7.87676 32.3862 9.32421 35.0695 11.6998 35.0695L23.2577 35.0695C25.6332 35.0695 27.0813 32.3862 25.8202 30.3189L20.0416 20.8431C18.8569 18.9008 16.1005 18.9008 14.9159 20.8431Z" fill="#FFD447"/>
<path d="M89.1569 0V35.1516" stroke="#FDFAE5" stroke-width="0.7989"/>
</svg>
