<svg width="182" height="36" viewBox="0 0 182 36" fill="none" xmlns="http://www.w3.org/2000/svg">
<path d="M154.198 16.0999C154.287 15.8841 154.39 15.7222 154.507 15.6143C154.625 15.5064 154.728 15.4524 154.816 15.4524C154.954 15.4524 155.052 15.5358 155.111 15.7026C155.169 15.8595 155.14 16.095 155.022 16.4089C154.856 16.7915 154.64 17.1251 154.375 17.4096C154.11 17.6941 153.791 17.9099 153.418 18.0571H153.433C153.09 18.2042 152.668 18.2778 152.167 18.2778C151.275 18.2778 150.583 17.9884 150.093 17.4096V17.4243C149.592 16.8455 149.283 16.0607 149.165 15.0698C149.146 14.903 149.131 14.7313 149.121 14.5547C149.111 14.3683 149.107 14.1819 149.107 13.9955C149.107 13.6326 149.121 13.2598 149.151 12.8772C149.19 12.4847 149.239 12.0825 149.298 11.6705C149.406 11.0524 149.538 10.4687 149.695 9.91929C149.852 9.36009 150.043 8.83033 150.269 8.32999C150.701 7.36857 151.255 6.60825 151.932 6.04906C152.266 5.76455 152.629 5.55363 153.021 5.41628C153.413 5.27893 153.83 5.21026 154.272 5.21026C154.546 5.21026 154.787 5.23969 154.993 5.29855C155.209 5.34761 155.415 5.41628 155.611 5.50457C155.758 5.59287 155.895 5.71059 156.023 5.85775C156.15 5.9951 156.258 6.15207 156.347 6.32866C156.445 6.50524 156.518 6.69655 156.567 6.90257C156.626 7.09878 156.656 7.29499 156.656 7.4912C156.656 7.69722 156.626 7.87871 156.567 8.03568C156.509 8.19265 156.425 8.32509 156.317 8.433C156.219 8.53111 156.106 8.60469 155.979 8.65374C155.861 8.70279 155.738 8.72732 155.611 8.72732C155.366 8.72732 155.15 8.63412 154.963 8.44772C154.777 8.26132 154.694 7.98172 154.713 7.60892C154.723 7.54025 154.728 7.46667 154.728 7.38819C154.738 7.29989 154.743 7.2165 154.743 7.13802C154.743 6.95162 154.728 6.76032 154.699 6.56411C154.669 6.3679 154.615 6.20602 154.537 6.07849C154.409 5.89209 154.228 5.79889 153.992 5.79889C153.649 5.79889 153.34 5.99019 153.065 6.3728C152.908 6.56901 152.761 6.82899 152.624 7.15274C152.496 7.46667 152.364 7.84438 152.226 8.28585C152.089 8.72732 151.961 9.23256 151.844 9.80157C151.726 10.3706 151.608 11.023 151.491 11.7588C151.363 12.4847 151.27 13.1371 151.211 13.7159C151.162 14.285 151.137 14.7902 151.137 15.2317C151.137 15.6535 151.162 16.0263 151.211 16.3501C151.27 16.664 151.353 16.9191 151.461 17.1153C151.569 17.2919 151.697 17.4292 151.844 17.5273C152.001 17.6254 152.182 17.6745 152.388 17.6745C152.624 17.6745 152.839 17.6205 153.036 17.5126C153.301 17.3851 153.531 17.1889 153.727 16.924C153.933 16.6591 154.09 16.3844 154.198 16.0999Z" fill="#3F3D39"/>
<path d="M160.898 8.40357C161.31 8.40357 161.615 8.54092 161.811 8.81561C162.007 9.0805 162.105 9.41896 162.105 9.831C162.105 10.0272 162.081 10.2234 162.031 10.4196C161.963 10.7336 161.83 10.969 161.634 11.126C161.448 11.2731 161.252 11.3467 161.046 11.3467C160.82 11.3467 160.619 11.2731 160.442 11.126C160.275 10.969 160.187 10.7385 160.177 10.4343V10.2872C160.177 10.2185 160.177 10.1449 160.177 10.0664C160.177 9.97816 160.172 9.89967 160.163 9.831C160.153 9.76232 160.133 9.70346 160.104 9.65441C160.084 9.60536 160.055 9.58083 160.015 9.58083C159.947 9.58083 159.878 9.61026 159.809 9.66912H159.824C159.736 9.75742 159.652 9.89477 159.574 10.0812C159.515 10.1891 159.461 10.3068 159.412 10.4343C159.363 10.5619 159.324 10.6992 159.294 10.8464C159.265 10.9347 159.231 11.072 159.191 11.2584C159.152 11.435 159.113 11.6312 159.074 11.8471L158.941 12.6564C158.882 12.9998 158.833 13.2892 158.794 13.5246C158.765 13.7601 158.735 13.9612 158.706 14.128C158.686 14.2948 158.666 14.437 158.647 14.5547C158.627 14.6725 158.608 14.7853 158.588 14.8932C158.568 15.0011 158.549 15.1139 158.529 15.2317C158.509 15.3396 158.485 15.4769 158.456 15.6437C158.436 15.8105 158.406 16.0116 158.367 16.2471C158.338 16.4825 158.299 16.7719 158.25 17.1153V17.1006C158.22 17.287 158.21 17.3851 158.22 17.3949C158.259 17.493 158.313 17.5764 158.382 17.645C158.402 17.6647 158.421 17.6892 158.441 17.7186C158.47 17.7481 158.505 17.7922 158.544 17.8511C158.593 17.9296 158.598 18.0031 158.559 18.0718C158.529 18.1405 158.475 18.1748 158.397 18.1748H155.807C155.718 18.1748 155.655 18.1356 155.615 18.0571C155.586 17.9786 155.596 17.905 155.645 17.8364C155.733 17.7382 155.841 17.645 155.969 17.5568C156.008 17.5175 156.042 17.4881 156.072 17.4685C156.111 17.4488 156.14 17.4292 156.16 17.4096C156.199 17.3311 156.233 17.2085 156.263 17.0417L156.969 12.5976V12.6123C157.018 12.2983 157.053 12.0335 157.072 11.8176C157.102 11.592 157.116 11.4105 157.116 11.2731C157.116 11.0475 157.082 10.8709 157.013 10.7434C156.945 10.6158 156.842 10.4883 156.704 10.3608H156.69C156.69 10.3411 156.685 10.3166 156.675 10.2872C156.665 10.2578 156.66 10.2332 156.66 10.2136V10.1547C156.66 10.1351 156.66 10.1155 156.66 10.0959C156.67 10.0664 156.68 10.0321 156.69 9.99287C156.69 9.97325 156.699 9.94872 156.719 9.91929C156.739 9.88986 156.758 9.87024 156.778 9.86043L159.044 8.60959H159.353C159.412 8.60959 159.461 8.63412 159.5 8.68317C159.549 8.72241 159.569 8.77637 159.559 8.84504L159.5 9.15407C159.598 9.03635 159.692 8.93334 159.78 8.84504C159.878 8.75675 159.981 8.67827 160.089 8.60959C160.334 8.47225 160.604 8.40357 160.898 8.40357Z" fill="#3F3D39"/>
<path d="M165.567 16.7768C165.577 16.8063 165.577 16.8455 165.567 16.8945C165.557 16.9338 165.542 16.9632 165.523 16.9828C165.444 17.0809 165.361 17.1791 165.273 17.2772C165.184 17.3654 165.101 17.4537 165.022 17.542H165.037C164.87 17.7186 164.659 17.8805 164.404 18.0277C164.296 18.0963 164.179 18.1454 164.051 18.1748C163.933 18.2042 163.806 18.2288 163.669 18.2484C163.492 18.268 163.301 18.2484 163.095 18.1895C162.898 18.1209 162.746 18.0178 162.638 17.8805C162.54 17.7432 162.467 17.5568 162.418 17.3213C162.379 17.076 162.369 16.8013 162.388 16.4972C162.408 16.0852 162.447 15.6682 162.506 15.2464C162.565 14.8147 162.634 14.3929 162.712 13.9808C162.741 13.8141 162.766 13.6571 162.786 13.5099C162.815 13.353 162.845 13.2009 162.874 13.0537L162.948 12.5976V12.6123C163.036 11.9942 163.08 11.5478 163.08 11.2731C163.08 11.0475 163.046 10.8709 162.977 10.7434C162.918 10.6158 162.82 10.4883 162.683 10.3608L162.653 10.3166C162.643 10.297 162.638 10.2676 162.638 10.2283C162.638 10.1989 162.638 10.1646 162.638 10.1253C162.638 10.0861 162.648 10.0419 162.668 9.99287C162.668 9.97325 162.678 9.94872 162.697 9.91929C162.717 9.88986 162.737 9.87024 162.756 9.86043L163.492 9.44839C163.541 9.16388 163.575 9.01673 163.595 9.00692C163.615 8.99711 163.615 9.12464 163.595 9.38953L165.008 8.60959H165.331C165.39 8.60959 165.439 8.63412 165.479 8.68317C165.528 8.72241 165.542 8.77637 165.523 8.84504C165.474 9.1786 165.43 9.4582 165.39 9.68384C165.351 9.90948 165.317 10.1057 165.287 10.2725C165.268 10.4294 165.248 10.5668 165.228 10.6845C165.209 10.8022 165.194 10.9151 165.184 11.023C165.165 11.1309 165.145 11.2437 165.125 11.3614C165.116 11.4792 165.096 11.6263 165.067 11.8029C165.037 11.9697 165.003 12.1708 164.964 12.4062C164.924 12.6417 164.875 12.936 164.816 13.2892L164.758 13.7748C164.679 14.2261 164.601 14.6823 164.522 15.1434C164.453 15.6045 164.395 16.041 164.346 16.4531C164.306 16.7278 164.321 16.9436 164.39 17.1006C164.419 17.1692 164.449 17.2036 164.478 17.2036C164.527 17.1938 164.581 17.179 164.64 17.1594C164.708 17.13 164.767 17.0809 164.816 17.0123H164.802C164.929 16.8847 165.057 16.7327 165.184 16.5561C165.243 16.4874 165.307 16.4629 165.376 16.4825C165.454 16.4923 165.503 16.5463 165.523 16.6444L165.567 16.7768ZM164.522 7.84437C164.189 7.84437 163.948 7.72665 163.801 7.4912C163.654 7.24593 163.58 6.96634 163.58 6.6524C163.58 6.466 163.61 6.2747 163.669 6.07849C163.727 5.87247 163.811 5.69097 163.919 5.53401C164.036 5.37704 164.174 5.2495 164.331 5.1514C164.498 5.04348 164.689 4.98952 164.905 4.98952C165.238 4.98952 165.479 5.10725 165.626 5.3427C165.783 5.56834 165.861 5.83813 165.861 6.15207C165.861 6.34828 165.832 6.54939 165.773 6.75541C165.714 6.95162 165.626 7.13311 165.508 7.29989C165.39 7.45686 165.248 7.5893 165.081 7.69722C164.915 7.79532 164.728 7.84437 164.522 7.84437Z" fill="#3F3D39"/>
<path d="M170.498 12.9949C170.665 13.2009 170.788 13.4462 170.866 13.7307C170.945 14.0054 170.984 14.2899 170.984 14.5842C170.984 15.006 170.91 15.4377 170.763 15.8792C170.626 16.3108 170.425 16.7032 170.16 17.0564C169.895 17.4096 169.571 17.6941 169.189 17.9099C168.806 18.116 168.374 18.2042 167.894 18.1748C167.648 18.1552 167.408 18.1061 167.173 18.0277C166.947 17.9492 166.741 17.8364 166.554 17.6892C166.378 17.542 166.236 17.3605 166.128 17.1447C166.02 16.9191 165.966 16.6542 165.966 16.3501C165.966 16.1539 165.995 15.9822 166.054 15.835C166.113 15.6879 166.191 15.5652 166.29 15.4671C166.388 15.369 166.496 15.2954 166.613 15.2464C166.741 15.1973 166.868 15.1728 166.996 15.1728C167.212 15.1728 167.403 15.2709 167.57 15.4671C167.746 15.6633 167.84 15.9135 167.849 16.2176C167.83 16.3844 167.815 16.5512 167.805 16.718C167.805 16.8847 167.81 16.9976 167.82 17.0564C167.84 17.184 167.864 17.3017 167.894 17.4096C167.923 17.5077 167.972 17.5715 168.041 17.6009C168.168 17.65 168.306 17.6352 168.453 17.5568C168.6 17.4685 168.732 17.3409 168.85 17.1741C168.978 16.9976 169.081 16.7964 169.159 16.5708C169.238 16.3452 169.277 16.1146 169.277 15.8792C169.277 15.683 169.243 15.4966 169.174 15.32C169.115 15.1434 169.002 14.9864 168.835 14.8491C168.767 14.7902 168.688 14.7313 168.6 14.6725C168.512 14.6136 168.414 14.5498 168.306 14.4812C168.021 14.2948 167.742 14.0789 167.467 13.8337C167.202 13.5884 167.001 13.2647 166.864 12.8624C166.814 12.7251 166.78 12.5828 166.76 12.4357C166.751 12.2885 166.746 12.1463 166.746 12.0089C166.746 11.6754 166.79 11.332 166.878 10.9788C166.976 10.6256 167.114 10.297 167.29 9.99287C167.477 9.68875 167.702 9.42386 167.967 9.19822C168.242 8.96277 168.551 8.79599 168.894 8.69789C169.13 8.63902 169.375 8.60959 169.63 8.60959C169.787 8.60959 169.969 8.62431 170.175 8.65374C170.371 8.69298 170.557 8.75184 170.734 8.83033C170.92 8.899 171.082 8.99711 171.219 9.12464C171.357 9.25218 171.465 9.40915 171.543 9.59555C171.622 9.78195 171.661 10.0027 171.661 10.2578C171.661 10.454 171.631 10.6256 171.573 10.7728C171.514 10.92 171.435 11.0426 171.337 11.1407C171.249 11.2388 171.141 11.3124 171.013 11.3614C170.896 11.4105 170.773 11.435 170.645 11.435C170.41 11.435 170.199 11.3467 170.013 11.1701C169.826 10.9935 169.748 10.7287 169.777 10.3755C169.797 10.2087 169.807 10.0468 169.807 9.88986C169.816 9.72308 169.816 9.61026 169.807 9.5514C169.807 9.45329 169.787 9.3699 169.748 9.30123C169.679 9.23256 169.596 9.19822 169.498 9.19822C169.37 9.19822 169.247 9.23256 169.13 9.30123L169.144 9.28652C168.929 9.39443 168.762 9.59064 168.644 9.87514C168.536 10.1498 168.482 10.4343 168.482 10.7287C168.482 10.9249 168.512 11.1162 168.571 11.3026C168.629 11.4792 168.713 11.6214 168.821 11.7293L168.806 11.7146C168.992 11.8814 169.213 12.0335 169.468 12.1708C169.655 12.2787 169.836 12.3964 170.013 12.524C170.199 12.6515 170.361 12.8085 170.498 12.9949Z" fill="#3F3D39"/>
<path d="M175.267 16.7768C175.277 16.8063 175.277 16.8455 175.267 16.8945C175.257 16.9338 175.243 16.9632 175.223 16.9828C175.145 17.0809 175.061 17.1791 174.973 17.2772C174.885 17.3654 174.801 17.4537 174.723 17.542H174.737C174.571 17.7186 174.36 17.8805 174.105 18.0277C173.997 18.0963 173.879 18.1454 173.751 18.1748C173.634 18.2042 173.506 18.2288 173.369 18.2484C173.192 18.268 173.001 18.2484 172.795 18.1895C172.599 18.1209 172.447 18.0178 172.339 17.8805C172.241 17.7432 172.167 17.5568 172.118 17.3213C172.079 17.076 172.069 16.8013 172.089 16.4972C172.108 16.0852 172.147 15.6682 172.206 15.2464C172.265 14.8147 172.334 14.3929 172.412 13.9808C172.442 13.8141 172.466 13.6571 172.486 13.5099C172.515 13.353 172.545 13.2009 172.574 13.0537L172.648 12.5976V12.6123C172.736 11.9942 172.78 11.5478 172.78 11.2731C172.78 11.0475 172.746 10.8709 172.677 10.7434C172.618 10.6158 172.52 10.4883 172.383 10.3608L172.354 10.3166C172.344 10.297 172.339 10.2676 172.339 10.2283C172.339 10.1989 172.339 10.1646 172.339 10.1253C172.339 10.0861 172.349 10.0419 172.368 9.99287C172.368 9.97325 172.378 9.94872 172.398 9.91929C172.417 9.88986 172.437 9.87024 172.457 9.86043L173.192 9.44839C173.241 9.16388 173.276 9.01673 173.295 9.00692C173.315 8.99711 173.315 9.12464 173.295 9.38953L174.708 8.60959H175.032C175.091 8.60959 175.14 8.63412 175.179 8.68317C175.228 8.72241 175.243 8.77637 175.223 8.84504C175.174 9.1786 175.13 9.4582 175.091 9.68384C175.051 9.90948 175.017 10.1057 174.988 10.2725C174.968 10.4294 174.948 10.5668 174.929 10.6845C174.909 10.8022 174.894 10.9151 174.885 11.023C174.865 11.1309 174.845 11.2437 174.826 11.3614C174.816 11.4792 174.796 11.6263 174.767 11.8029C174.737 11.9697 174.703 12.1708 174.664 12.4062C174.625 12.6417 174.576 12.936 174.517 13.2892L174.458 13.7748C174.379 14.2261 174.301 14.6823 174.222 15.1434C174.154 15.6045 174.095 16.041 174.046 16.4531C174.007 16.7278 174.021 16.9436 174.09 17.1006C174.119 17.1692 174.149 17.2036 174.178 17.2036C174.227 17.1938 174.281 17.179 174.34 17.1594C174.409 17.13 174.468 17.0809 174.517 17.0123H174.502C174.63 16.8847 174.757 16.7327 174.885 16.5561C174.943 16.4874 175.007 16.4629 175.076 16.4825C175.154 16.4923 175.203 16.5463 175.223 16.6444L175.267 16.7768ZM174.222 7.84437C173.889 7.84437 173.648 7.72665 173.501 7.4912C173.354 7.24593 173.281 6.96634 173.281 6.6524C173.281 6.466 173.31 6.2747 173.369 6.07849C173.428 5.87247 173.511 5.69097 173.619 5.53401C173.737 5.37704 173.874 5.2495 174.031 5.1514C174.198 5.04348 174.389 4.98952 174.605 4.98952C174.939 4.98952 175.179 5.10725 175.326 5.3427C175.483 5.56834 175.562 5.83813 175.562 6.15207C175.562 6.34828 175.532 6.54939 175.473 6.75541C175.414 6.95162 175.326 7.13311 175.208 7.29989C175.091 7.45686 174.948 7.5893 174.782 7.69722C174.615 7.79532 174.428 7.84437 174.222 7.84437Z" fill="#3F3D39"/>
<path d="M180.199 12.9949C180.365 13.2009 180.488 13.4462 180.566 13.7307C180.645 14.0054 180.684 14.2899 180.684 14.5842C180.684 15.006 180.611 15.4377 180.463 15.8792C180.326 16.3108 180.125 16.7032 179.86 17.0564C179.595 17.4096 179.272 17.6941 178.889 17.9099C178.506 18.116 178.075 18.2042 177.594 18.1748C177.349 18.1552 177.108 18.1061 176.873 18.0277C176.647 17.9492 176.441 17.8364 176.255 17.6892C176.078 17.542 175.936 17.3605 175.828 17.1447C175.72 16.9191 175.666 16.6542 175.666 16.3501C175.666 16.1539 175.696 15.9822 175.754 15.835C175.813 15.6879 175.892 15.5652 175.99 15.4671C176.088 15.369 176.196 15.2954 176.314 15.2464C176.441 15.1973 176.569 15.1728 176.696 15.1728C176.912 15.1728 177.103 15.2709 177.27 15.4671C177.447 15.6633 177.54 15.9135 177.55 16.2176C177.53 16.3844 177.515 16.5512 177.506 16.718C177.506 16.8847 177.511 16.9976 177.52 17.0564C177.54 17.184 177.564 17.3017 177.594 17.4096C177.623 17.5077 177.672 17.5715 177.741 17.6009C177.869 17.65 178.006 17.6352 178.153 17.5568C178.3 17.4685 178.433 17.3409 178.55 17.1741C178.678 16.9976 178.781 16.7964 178.859 16.5708C178.938 16.3452 178.977 16.1146 178.977 15.8792C178.977 15.683 178.943 15.4966 178.874 15.32C178.815 15.1434 178.702 14.9864 178.536 14.8491C178.467 14.7902 178.389 14.7313 178.3 14.6725C178.212 14.6136 178.114 14.5498 178.006 14.4812C177.721 14.2948 177.442 14.0789 177.167 13.8337C176.902 13.5884 176.701 13.2647 176.564 12.8624C176.515 12.7251 176.48 12.5828 176.461 12.4357C176.451 12.2885 176.446 12.1463 176.446 12.0089C176.446 11.6754 176.49 11.332 176.579 10.9788C176.677 10.6256 176.814 10.297 176.991 9.99287C177.177 9.68875 177.403 9.42386 177.667 9.19822C177.942 8.96277 178.251 8.79599 178.595 8.69789C178.83 8.63902 179.075 8.60959 179.33 8.60959C179.487 8.60959 179.669 8.62431 179.875 8.65374C180.071 8.69298 180.257 8.75184 180.434 8.83033C180.62 8.899 180.782 8.99711 180.92 9.12464C181.057 9.25218 181.165 9.40915 181.243 9.59555C181.322 9.78195 181.361 10.0027 181.361 10.2578C181.361 10.454 181.332 10.6256 181.273 10.7728C181.214 10.92 181.135 11.0426 181.037 11.1407C180.949 11.2388 180.841 11.3124 180.714 11.3614C180.596 11.4105 180.473 11.435 180.346 11.435C180.11 11.435 179.899 11.3467 179.713 11.1701C179.527 10.9935 179.448 10.7287 179.478 10.3755C179.497 10.2087 179.507 10.0468 179.507 9.88986C179.517 9.72308 179.517 9.61026 179.507 9.5514C179.507 9.45329 179.487 9.3699 179.448 9.30123C179.379 9.23256 179.296 9.19822 179.198 9.19822C179.07 9.19822 178.948 9.23256 178.83 9.30123L178.845 9.28652C178.629 9.39443 178.462 9.59064 178.344 9.87514C178.236 10.1498 178.183 10.4343 178.183 10.7287C178.183 10.9249 178.212 11.1162 178.271 11.3026C178.33 11.4792 178.413 11.6214 178.521 11.7293L178.506 11.7146C178.693 11.8814 178.913 12.0335 179.168 12.1708C179.355 12.2787 179.536 12.3964 179.713 12.524C179.899 12.6515 180.061 12.8085 180.199 12.9949Z" fill="#3F3D39"/>
<path d="M109.758 16.0803C109.847 15.8645 109.95 15.7026 110.067 15.5947C110.185 15.4868 110.288 15.4328 110.376 15.4328C110.514 15.4328 110.612 15.5162 110.671 15.683C110.73 15.8399 110.7 16.0754 110.582 16.3893C110.416 16.7719 110.2 17.1055 109.935 17.39C109.67 17.6745 109.351 17.8903 108.978 18.0375H108.993C108.65 18.1846 108.228 18.2582 107.728 18.2582C106.835 18.2582 106.143 17.9688 105.653 17.39V17.4047C105.152 16.8259 104.843 16.0411 104.726 15.0502C104.706 14.8834 104.691 14.7117 104.681 14.5351C104.672 14.3487 104.667 14.1623 104.667 13.9759C104.667 13.613 104.681 13.2402 104.711 12.8576C104.75 12.4651 104.799 12.0629 104.858 11.6509C104.966 11.0328 105.098 10.4491 105.255 9.89969C105.412 9.34049 105.604 8.81073 105.829 8.31039C106.261 7.34897 106.815 6.58865 107.492 6.02946C107.826 5.74495 108.189 5.53403 108.581 5.39668C108.974 5.25933 109.39 5.19066 109.832 5.19066C110.107 5.19066 110.347 5.22009 110.553 5.27895C110.769 5.32801 110.975 5.39668 111.171 5.48497C111.318 5.57327 111.456 5.69099 111.583 5.83815C111.711 5.9755 111.819 6.13247 111.907 6.30905C112.005 6.48564 112.079 6.67695 112.128 6.88297C112.186 7.07918 112.216 7.27539 112.216 7.4716C112.216 7.67762 112.186 7.85911 112.128 8.01608C112.069 8.17305 111.985 8.30549 111.877 8.4134C111.779 8.51151 111.667 8.58509 111.539 8.63414C111.421 8.68319 111.299 8.70772 111.171 8.70772C110.926 8.70772 110.71 8.61452 110.524 8.42812C110.337 8.24172 110.254 7.96212 110.273 7.58932C110.283 7.52065 110.288 7.44707 110.288 7.36859C110.298 7.28029 110.303 7.1969 110.303 7.11842C110.303 6.93202 110.288 6.74072 110.259 6.54451C110.229 6.3483 110.175 6.18642 110.097 6.05889C109.969 5.87249 109.788 5.77929 109.552 5.77929C109.209 5.77929 108.9 5.97059 108.625 6.3532C108.468 6.54941 108.321 6.80939 108.184 7.13313C108.056 7.44707 107.924 7.82477 107.786 8.26625C107.649 8.70772 107.522 9.21296 107.404 9.78197C107.286 10.351 107.168 11.0034 107.051 11.7392C106.923 12.4651 106.83 13.1175 106.771 13.6964C106.722 14.2654 106.698 14.7706 106.698 15.2121C106.698 15.6339 106.722 16.0067 106.771 16.3305C106.83 16.6444 106.913 16.8995 107.021 17.0957C107.129 17.2723 107.257 17.4096 107.404 17.5077C107.561 17.6058 107.742 17.6549 107.948 17.6549C108.184 17.6549 108.4 17.6009 108.596 17.493C108.861 17.3655 109.091 17.1693 109.287 16.9044C109.494 16.6395 109.65 16.3648 109.758 16.0803Z" fill="#3F3D39"/>
<path d="M118.006 16.7278C118.016 16.7572 118.016 16.7965 118.006 16.8455C118.006 16.8848 117.996 16.9142 117.977 16.9338L117.476 17.493C117.398 17.5911 117.305 17.6843 117.197 17.7726C117.099 17.8511 116.996 17.9149 116.888 17.9639C116.652 18.1111 116.397 18.1994 116.122 18.2288C115.74 18.2778 115.431 18.1552 115.195 17.8609H115.21C115.102 17.7334 115.024 17.547 114.975 17.3017C114.935 17.0564 114.921 16.7867 114.931 16.4923C114.862 16.6591 114.793 16.8161 114.724 16.9632C114.656 17.1006 114.587 17.2232 114.518 17.3311C114.136 17.8903 113.689 18.2092 113.179 18.2877C112.757 18.3367 112.419 18.2337 112.164 17.9786C112.027 17.8511 111.909 17.6941 111.811 17.5077C111.713 17.3115 111.634 17.0957 111.575 16.8602C111.526 16.664 111.492 16.4531 111.472 16.2275C111.463 15.992 111.458 15.7566 111.458 15.5211C111.458 15.1091 111.487 14.6823 111.546 14.2408C111.615 13.7895 111.708 13.3481 111.825 12.9164C111.953 12.4749 112.105 12.0482 112.282 11.6361C112.458 11.2143 112.654 10.8268 112.87 10.4736H112.856C113.013 10.2185 113.179 9.98799 113.356 9.78197C113.533 9.57595 113.724 9.38955 113.93 9.22277C114.352 8.86959 114.808 8.66357 115.298 8.60471C115.446 8.58509 115.583 8.58018 115.71 8.58999C115.838 8.5998 115.946 8.62923 116.034 8.67829C116.122 8.72734 116.196 8.77149 116.255 8.81073C116.314 8.84016 116.368 8.88921 116.417 8.95789L117.844 8.58999C117.913 8.57037 117.972 8.58509 118.021 8.63414C118.08 8.68319 118.099 8.74696 118.08 8.82544L117.035 14.6087C117.015 14.6578 117.001 14.7215 116.991 14.8C116.981 14.8687 116.966 14.9423 116.947 15.0208C116.937 15.0404 116.927 15.0698 116.917 15.1091C116.917 15.1385 116.917 15.163 116.917 15.1826C116.917 15.2906 116.907 15.4083 116.888 15.5358C116.868 15.6535 116.848 15.7516 116.829 15.8301C116.829 15.889 116.824 15.9479 116.814 16.0067C116.814 16.0558 116.814 16.1048 116.814 16.1539C116.794 16.252 116.785 16.3305 116.785 16.3893C116.785 16.5365 116.79 16.6738 116.799 16.8014C116.809 16.9191 116.824 17.0123 116.844 17.081C116.863 17.1398 116.888 17.1693 116.917 17.1693C117.035 17.1693 117.148 17.1006 117.256 16.9632C117.324 16.8848 117.388 16.8112 117.447 16.7425C117.506 16.6738 117.57 16.5953 117.638 16.5071C117.687 16.4384 117.746 16.4139 117.815 16.4335C117.893 16.4531 117.942 16.5021 117.962 16.5806L118.006 16.7278ZM116.034 9.35521L115.902 9.23748L115.916 9.2522C115.828 9.20315 115.745 9.18843 115.666 9.20805C115.549 9.21786 115.431 9.26692 115.313 9.35521C115.205 9.43369 115.102 9.52689 115.004 9.63481C114.808 9.9095 114.607 10.2872 114.401 10.7679C114.273 11.0917 114.151 11.4694 114.033 11.901C113.915 12.3229 113.812 12.7644 113.724 13.2254C113.636 13.6865 113.562 14.1476 113.503 14.6087C113.454 15.0698 113.43 15.4966 113.43 15.889C113.43 16.1637 113.444 16.4089 113.474 16.6248C113.503 16.8308 113.552 16.978 113.621 17.0663H113.606C113.675 17.1153 113.724 17.1349 113.753 17.1251C113.881 17.1153 114.008 17.027 114.136 16.8602C114.214 16.7621 114.283 16.6542 114.342 16.5365C114.401 16.4089 114.465 16.2618 114.533 16.095C114.69 15.732 114.813 15.3936 114.901 15.0796C114.94 14.9227 114.98 14.7608 115.019 14.594C115.058 14.4272 115.097 14.231 115.137 14.0054L116.034 9.35521Z" fill="#3F3D39"/>
<path d="M123.127 8.38397C123.539 8.38397 123.843 8.52132 124.039 8.79601C124.235 9.0609 124.333 9.39936 124.333 9.8114C124.333 10.0076 124.309 10.2038 124.26 10.4C124.191 10.714 124.059 10.9494 123.862 11.1064C123.676 11.2535 123.48 11.3271 123.274 11.3271C123.048 11.3271 122.847 11.2535 122.67 11.1064C122.504 10.9494 122.415 10.7189 122.406 10.4147V10.2676C122.406 10.1989 122.406 10.1253 122.406 10.0468C122.406 9.95855 122.401 9.88007 122.391 9.8114C122.381 9.74272 122.361 9.68386 122.332 9.63481C122.312 9.58576 122.283 9.56123 122.244 9.56123C122.175 9.56123 122.106 9.59066 122.038 9.64952H122.052C121.964 9.73782 121.881 9.87517 121.802 10.0616C121.743 10.1695 121.689 10.2872 121.64 10.4147C121.591 10.5423 121.552 10.6796 121.523 10.8268C121.493 10.9151 121.459 11.0524 121.42 11.2388C121.38 11.4154 121.341 11.6116 121.302 11.8275L121.169 12.6368C121.111 12.9802 121.061 13.2696 121.022 13.505C120.993 13.7405 120.963 13.9416 120.934 14.1084C120.914 14.2752 120.895 14.4174 120.875 14.5351C120.855 14.6529 120.836 14.7657 120.816 14.8736C120.797 14.9815 120.777 15.0943 120.757 15.2121C120.738 15.32 120.713 15.4573 120.684 15.6241C120.664 15.7909 120.635 15.992 120.595 16.2275C120.566 16.4629 120.527 16.7523 120.478 17.0957V17.081C120.448 17.2674 120.439 17.3655 120.448 17.3753C120.488 17.4734 120.542 17.5568 120.61 17.6254C120.63 17.6451 120.649 17.6696 120.669 17.699C120.698 17.7285 120.733 17.7726 120.772 17.8315C120.821 17.91 120.826 17.9835 120.787 18.0522C120.757 18.1209 120.703 18.1552 120.625 18.1552H118.035C117.947 18.1552 117.883 18.116 117.844 18.0375C117.814 17.959 117.824 17.8854 117.873 17.8168C117.961 17.7186 118.069 17.6254 118.197 17.5372C118.236 17.4979 118.27 17.4685 118.3 17.4489C118.339 17.4292 118.369 17.4096 118.388 17.39C118.427 17.3115 118.462 17.1889 118.491 17.0221L119.197 12.578V12.5927C119.247 12.2787 119.281 12.0139 119.301 11.798C119.33 11.5724 119.345 11.3909 119.345 11.2535C119.345 11.0279 119.31 10.8513 119.242 10.7238C119.173 10.5962 119.07 10.4687 118.933 10.3412H118.918C118.918 10.3215 118.913 10.297 118.903 10.2676C118.893 10.2382 118.888 10.2136 118.888 10.194V10.1351C118.888 10.1155 118.888 10.0959 118.888 10.0763C118.898 10.0468 118.908 10.0125 118.918 9.97327C118.918 9.95365 118.928 9.92912 118.947 9.89969C118.967 9.87026 118.987 9.85064 119.006 9.84083L121.272 8.58999H121.581C121.64 8.58999 121.689 8.61452 121.729 8.66357C121.778 8.70281 121.797 8.75677 121.787 8.82544L121.729 9.13447C121.827 9.01675 121.92 8.91374 122.008 8.82544C122.106 8.73715 122.209 8.65867 122.317 8.58999C122.562 8.45264 122.832 8.38397 123.127 8.38397Z" fill="#3F3D39"/>
<path d="M130.583 16.7572C130.603 16.8357 130.593 16.9044 130.554 16.9632C130.475 17.0613 130.392 17.1595 130.304 17.2576C130.225 17.3459 130.142 17.4341 130.054 17.5224C129.965 17.6304 129.867 17.7236 129.759 17.802C129.661 17.8707 129.558 17.9394 129.45 18.0081C129.342 18.0767 129.225 18.1258 129.097 18.1552C128.97 18.1846 128.837 18.2092 128.7 18.2288C128.513 18.2484 128.322 18.2288 128.126 18.1699C127.93 18.1013 127.778 17.9982 127.67 17.8609C127.591 17.753 127.532 17.6205 127.493 17.4636C127.464 17.2968 127.439 17.1153 127.419 16.9191C127.341 17.0564 127.267 17.184 127.199 17.3017C127.14 17.4096 127.071 17.5077 126.993 17.596C126.816 17.802 126.625 17.9639 126.419 18.0816C126.213 18.1994 125.997 18.2582 125.771 18.2582C125.242 18.2582 124.825 18.0669 124.52 17.6843C124.226 17.3213 124.05 16.7621 123.991 16.0067C123.981 15.9282 123.976 15.8399 123.976 15.7418C123.976 15.6437 123.976 15.5456 123.976 15.4475C123.976 15.1434 123.991 14.8049 124.02 14.4321C124.05 14.0593 124.099 13.6669 124.167 13.2549C124.256 12.7349 124.359 12.2395 124.476 11.7686C124.594 11.2879 124.722 10.8807 124.859 10.5472C125.134 9.83102 125.467 9.29144 125.86 8.92845C126.281 8.56547 126.738 8.38397 127.228 8.38397C127.719 8.38397 128.091 8.60961 128.347 9.0609C128.366 9.10995 128.386 9.16391 128.405 9.22277C128.435 9.27182 128.459 9.32087 128.479 9.36993L128.582 8.79601V8.81073C128.67 8.18286 128.714 7.72176 128.714 7.42745C128.714 7.20181 128.68 7.03012 128.611 6.9124C128.553 6.79467 128.459 6.67204 128.332 6.54451H128.317C128.307 6.52488 128.297 6.50036 128.288 6.47093C128.278 6.43168 128.273 6.40225 128.273 6.38263V6.32377C128.273 6.27472 128.278 6.23057 128.288 6.19133C128.297 6.1619 128.307 6.13737 128.317 6.11775C128.337 6.08832 128.356 6.06379 128.376 6.04417L130.642 4.79333H130.966C131.035 4.79333 131.089 4.81786 131.128 4.86691C131.167 4.91597 131.177 4.97483 131.157 5.0435C130.941 6.42678 130.726 7.80025 130.51 9.16391C130.304 10.5276 130.088 11.8961 129.862 13.2696L129.774 13.7552C129.705 14.2065 129.632 14.6627 129.553 15.1238C129.485 15.5849 129.426 16.0214 129.377 16.4335C129.367 16.5708 129.367 16.6984 129.377 16.8161C129.386 16.9338 129.406 17.027 129.436 17.0957C129.445 17.1545 129.47 17.184 129.509 17.184C129.558 17.1742 129.607 17.1595 129.656 17.1398C129.715 17.1104 129.774 17.0613 129.833 16.9927C130.009 16.8161 130.137 16.6689 130.215 16.5512C130.264 16.4825 130.323 16.4531 130.392 16.4629C130.471 16.4727 130.524 16.5218 130.554 16.6101L130.583 16.7572ZM127.11 16.3893C127.248 16.0165 127.385 15.5456 127.522 14.9766C127.66 14.4076 127.787 13.7552 127.905 13.0194C127.974 12.5878 128.028 12.1855 128.067 11.8127C128.106 11.4399 128.126 11.1113 128.126 10.8268C128.145 10.248 128.101 9.82611 127.993 9.56123C127.905 9.33559 127.782 9.22277 127.625 9.22277C127.478 9.22277 127.326 9.3454 127.169 9.59066V9.57595C127.081 9.7231 126.993 9.9046 126.904 10.1204C126.816 10.3363 126.733 10.5913 126.654 10.8856C126.576 11.1603 126.497 11.4841 126.419 11.8569C126.35 12.2199 126.277 12.6368 126.198 13.1077C126.12 13.6179 126.056 14.0839 126.007 14.5057C125.967 14.9178 125.938 15.2856 125.918 15.6094V16.095C125.918 16.3108 125.923 16.5021 125.933 16.6689C125.943 16.8259 125.963 16.9583 125.992 17.0663C126.061 17.3017 126.159 17.4194 126.286 17.4194C126.561 17.4194 126.836 17.0761 127.11 16.3893Z" fill="#3F3D39"/>
<path d="M135.73 12.9753C135.897 13.1813 136.019 13.4266 136.098 13.7111C136.176 13.9858 136.216 14.2703 136.216 14.5646C136.216 14.9864 136.142 15.4181 135.995 15.8596C135.858 16.2912 135.656 16.6836 135.392 17.0368C135.127 17.39 134.803 17.6745 134.42 17.8903C134.038 18.0964 133.606 18.1846 133.125 18.1552C132.88 18.1356 132.64 18.0865 132.404 18.0081C132.179 17.9296 131.973 17.8168 131.786 17.6696C131.61 17.5224 131.467 17.3409 131.359 17.1251C131.252 16.8995 131.198 16.6346 131.198 16.3305C131.198 16.1343 131.227 15.9626 131.286 15.8154C131.345 15.6683 131.423 15.5456 131.521 15.4475C131.619 15.3494 131.727 15.2758 131.845 15.2268C131.973 15.1777 132.1 15.1532 132.228 15.1532C132.444 15.1532 132.635 15.2513 132.802 15.4475C132.978 15.6437 133.071 15.8939 133.081 16.198C133.062 16.3648 133.047 16.5316 133.037 16.6984C133.037 16.8651 133.042 16.978 133.052 17.0368C133.071 17.1644 133.096 17.2821 133.125 17.39C133.155 17.4881 133.204 17.5519 133.273 17.5813C133.4 17.6304 133.537 17.6156 133.685 17.5372C133.832 17.4489 133.964 17.3213 134.082 17.1545C134.209 16.978 134.312 16.7768 134.391 16.5512C134.469 16.3256 134.509 16.095 134.509 15.8596C134.509 15.6634 134.474 15.477 134.406 15.3004C134.347 15.1238 134.234 14.9668 134.067 14.8295C133.998 14.7706 133.92 14.7117 133.832 14.6529C133.743 14.594 133.645 14.5302 133.537 14.4616C133.253 14.2752 132.973 14.0593 132.699 13.8141C132.434 13.5688 132.233 13.2451 132.095 12.8428C132.046 12.7055 132.012 12.5632 131.992 12.4161C131.982 12.2689 131.978 12.1267 131.978 11.9893C131.978 11.6558 132.022 11.3124 132.11 10.9592C132.208 10.606 132.345 10.2774 132.522 9.97327C132.708 9.66915 132.934 9.40426 133.199 9.17862C133.474 8.94317 133.783 8.77639 134.126 8.67829C134.361 8.61942 134.607 8.58999 134.862 8.58999C135.019 8.58999 135.2 8.60471 135.406 8.63414C135.602 8.67338 135.789 8.73224 135.965 8.81073C136.152 8.8794 136.314 8.97751 136.451 9.10504C136.588 9.23258 136.696 9.38955 136.775 9.57595C136.853 9.76235 136.893 9.98308 136.893 10.2382C136.893 10.4344 136.863 10.606 136.804 10.7532C136.745 10.9004 136.667 11.023 136.569 11.1211C136.481 11.2192 136.373 11.2928 136.245 11.3418C136.127 11.3909 136.005 11.4154 135.877 11.4154C135.642 11.4154 135.431 11.3271 135.244 11.1505C135.058 10.9739 134.98 10.7091 135.009 10.3559C135.029 10.1891 135.038 10.0272 135.038 9.87026C135.048 9.70348 135.048 9.59066 135.038 9.5318C135.038 9.43369 135.019 9.3503 134.98 9.28163C134.911 9.21296 134.827 9.17862 134.729 9.17862C134.602 9.17862 134.479 9.21296 134.361 9.28163L134.376 9.26692C134.16 9.37483 133.994 9.57104 133.876 9.85554C133.768 10.1302 133.714 10.4147 133.714 10.7091C133.714 10.9053 133.743 11.0966 133.802 11.283C133.861 11.4596 133.945 11.6018 134.052 11.7097L134.038 11.695C134.224 11.8618 134.445 12.0139 134.7 12.1512C134.886 12.2591 135.068 12.3768 135.244 12.5044C135.431 12.6319 135.593 12.7889 135.73 12.9753Z" fill="#3F3D39"/>
<path d="M143.218 10.2405C143.389 10.436 143.514 10.6951 143.592 11.0176C143.675 11.3353 143.717 11.6872 143.717 12.0733C143.717 12.4252 143.685 12.7893 143.621 13.1656C143.558 13.542 143.465 13.9061 143.342 14.258C143.225 14.605 143.081 14.9251 142.909 15.2183C142.738 15.5067 142.545 15.7413 142.33 15.9221C141.997 16.2007 141.63 16.34 141.229 16.34C140.798 16.34 140.456 16.1983 140.201 15.9148C140.035 15.7193 139.913 15.4627 139.834 15.145C139.756 14.8274 139.717 14.4779 139.717 14.0967C139.717 13.7448 139.749 13.3782 139.812 12.997C139.876 12.6158 139.966 12.2517 140.084 11.9047C140.206 11.5528 140.35 11.2327 140.517 10.9443C140.688 10.6511 140.881 10.414 141.097 10.2332C141.419 9.95951 141.796 9.82266 142.227 9.82266C142.638 9.82266 142.968 9.96439 143.218 10.2479V10.2405ZM141.963 15.3796C142.06 15.1597 142.153 14.8738 142.241 14.5219C142.334 14.17 142.415 13.7961 142.484 13.4002C142.557 12.9995 142.616 12.6036 142.66 12.2126C142.704 11.8167 142.726 11.4697 142.726 11.1716C142.726 11.0983 142.723 11.025 142.718 10.9516C142.714 10.8783 142.706 10.8124 142.696 10.7537C142.667 10.5191 142.608 10.3554 142.52 10.2625C142.452 10.1648 142.352 10.1159 142.219 10.1159C142.151 10.1159 142.082 10.1306 142.014 10.1599C141.945 10.1892 141.882 10.2283 141.823 10.2772C141.769 10.3309 141.711 10.4043 141.647 10.4971C141.588 10.59 141.534 10.6877 141.486 10.7904C141.422 10.937 141.358 11.1154 141.295 11.3255C141.231 11.5308 141.17 11.7556 141.111 12C141.057 12.2395 141.006 12.4912 140.957 12.7551C140.908 13.019 140.867 13.2805 140.832 13.5395C140.798 13.7986 140.771 14.0503 140.752 14.2946C140.732 14.5341 140.722 14.7516 140.722 14.9471C140.722 15.0351 140.725 15.1182 140.73 15.1964C140.734 15.2697 140.742 15.3405 140.752 15.409C140.781 15.6435 140.837 15.8097 140.92 15.9075C140.994 16.0003 141.099 16.0468 141.236 16.0468C141.373 16.0468 141.5 15.9954 141.618 15.8928C141.75 15.7706 141.865 15.5996 141.963 15.3796Z" fill="#3F3D39"/>
<path d="M147.026 10.4018C147.026 10.6022 146.972 10.7537 146.864 10.8563C146.757 10.9541 146.639 11.003 146.512 11.003C146.404 11.003 146.306 10.9516 146.218 10.849C146.135 10.7464 146.091 10.6169 146.086 10.4605C146.096 10.3774 146.101 10.2943 146.101 10.2112C146.101 10.1281 146.101 10.0719 146.101 10.0426C146.096 9.98394 146.081 9.93751 146.057 9.9033C146.032 9.8642 146.003 9.84465 145.969 9.84465C145.91 9.84465 145.861 9.89841 145.822 10.0059C145.768 10.1526 145.707 10.414 145.639 10.7904L145.521 11.5235H146.138C146.201 11.5235 146.233 11.5577 146.233 11.6261L146.218 11.7141C146.218 11.7385 146.209 11.763 146.189 11.7874C146.169 11.8069 146.147 11.8167 146.123 11.8167H145.477C145.394 12.3201 145.311 12.8333 145.228 13.3562C145.149 13.8743 145.071 14.385 144.993 14.8884L144.934 15.2623C144.91 15.4383 144.88 15.6264 144.846 15.8268C144.817 16.0272 144.78 16.2251 144.736 16.4206C144.692 16.621 144.64 16.8092 144.582 16.9851C144.528 17.166 144.464 17.3224 144.391 17.4543C144.308 17.6058 144.215 17.7354 144.112 17.8429C144.009 17.9553 143.902 18.0433 143.789 18.1068C143.569 18.2241 143.319 18.2827 143.04 18.2827H142.93C142.906 18.2827 142.886 18.273 142.872 18.2534C142.852 18.2339 142.842 18.2094 142.842 18.1801L142.857 18.0995C142.857 18.0701 142.867 18.0457 142.886 18.0262C142.901 18.0066 142.921 17.9968 142.945 17.9968H142.989C143.097 17.9968 143.19 17.9577 143.268 17.8795C143.307 17.8404 143.349 17.7842 143.393 17.7109C143.437 17.6376 143.478 17.5521 143.518 17.4543C143.557 17.3419 143.596 17.2002 143.635 17.0291C143.674 16.863 143.711 16.6846 143.745 16.494C143.779 16.3033 143.811 16.1103 143.84 15.9148C143.875 15.7144 143.904 15.5287 143.929 15.3576C143.938 15.2745 143.951 15.1964 143.965 15.123C143.98 15.0448 143.992 14.9642 144.002 14.8811L144.486 11.8167H144.119C144.095 11.8167 144.073 11.8069 144.053 11.7874C144.039 11.763 144.031 11.7385 144.031 11.7141L144.046 11.6261C144.046 11.5968 144.053 11.5723 144.068 11.5528C144.088 11.5332 144.11 11.5235 144.134 11.5235H144.53L144.567 11.2962C144.665 10.7439 144.824 10.3212 145.044 10.0279V10.0353C145.132 9.89841 145.254 9.78845 145.411 9.70536L145.404 9.71269C145.506 9.65404 145.609 9.6125 145.712 9.58806C145.82 9.56363 145.922 9.55141 146.02 9.55141C146.216 9.55141 146.397 9.59051 146.563 9.66871C146.695 9.72735 146.805 9.81777 146.894 9.93996C146.982 10.0573 147.026 10.2112 147.026 10.4018Z" fill="#3F3D39"/>
<rect x="129.667" y="22.4921" width="26.6374" height="9.2367" rx="1.78775" stroke="#3F3D39" stroke-width="0.893874"/>
<circle cx="151.421" cy="27.1367" r="3.0355" transform="rotate(90 151.421 27.1367)" fill="#CD302F"/>
<circle cx="147.218" cy="27.1367" r="3.0355" transform="rotate(90 147.218 27.1367)" fill="#CA840C"/>
<circle cx="143.015" cy="27.1367" r="3.0355" transform="rotate(90 143.015 27.1367)" fill="#4190A9"/>
<circle cx="138.812" cy="27.1367" r="3.0355" transform="rotate(90 138.812 27.1367)" fill="#D9AD1F"/>
<circle cx="134.609" cy="27.1367" r="3.0355" transform="rotate(90 134.609 27.1367)" fill="#399B2C"/>
<path d="M40.2531 22.7947H41.1048V31.5936H40.2531V22.7947Z" fill="#3F3D39"/>
<path d="M40.9881 20.1358H40.2531V16.4015H40.9881V15.6897H41.7115V14.9662H43.9983V15.6897H44.71V16.4015H45.4334V17.2534H44.5934V16.5299H43.87V15.8064H41.8282V16.5299H41.1164V20.0191H41.8282V20.731H43.87V20.0191H44.5934V19.2956H45.4334V20.1358H44.71V20.8593H43.9983V21.5945H41.7115V20.8593H40.9881V20.1358Z" fill="#3F3D39"/>
<path d="M45.9001 12.7956H46.7635V15.6897H47.3585V14.9662H49.6453V15.6897H50.3571V16.4015H51.0804V21.5945H50.2404V16.5299H49.517V15.8064H47.4752V16.5299H46.7635V21.5945H45.9001V12.7956Z" fill="#3F3D39"/>
<path d="M51.5705 18.5721H52.3055V17.8486H55.1874V15.8064H52.4339V17.2534H51.5705V15.6897H52.3055V14.9662H55.3157V15.6897H56.0274V20.731H56.7508V21.5945H55.9108V20.8593H54.5923V21.5945H52.3055V20.8593H51.5705V18.5721ZM54.464 20.731V20.0191H55.1874V18.7005H52.4339V20.731H54.464Z" fill="#3F3D39"/>
<path d="M57.031 14.966H57.8944V15.6896H58.4894V14.966H60.7763V15.6896H61.488V16.4014H62.2114V21.5944H61.3713V16.5298H60.6479V15.8063H58.6061V16.5298H57.8944V21.5944H57.031V14.966Z" fill="#3F3D39"/>
<path d="M62.6548 20.0657H63.3899V19.4588H62.6548V18.6186H63.3899V18.0235H62.6548V15.7362H63.3899V15.0127H66.4001V15.7362H66.9951V15.0127H67.8352V15.8529H67.1118V18.0235H66.4001V18.747H63.5182V19.3421H67.1118V20.0657H67.8352V21.641H67.1118V22.3646H63.3899V21.641H62.6548V20.0657ZM66.2717 17.8951V15.8529H63.5182V17.8951H66.2717ZM66.9951 21.501V20.1824H63.5182V21.501H66.9951Z" fill="#3F3D39"/>
<path d="M68.7335 20.1824H67.9984V16.4481H68.7335V15.7362H69.4569V15.0127H71.7437V15.7362H72.4554V16.4481H73.1788V18.747H68.8618V20.0657H69.5735V20.7775H71.6153V20.0657H72.3387V19.3421H73.1788V20.1824H72.4554V20.9059H71.7437V21.641H69.4569V20.9059H68.7335V20.1824ZM72.3387 17.8951V16.5764H71.6153V15.8529H69.5735V16.5764H68.8618V17.8951H72.3387Z" fill="#3F3D39"/>
<path d="M41.7115 6.51257H40.2531V5.67236H41.7115V3.50182H42.5515V5.67236H44.71V6.51257H42.5515V11.4371H44.71V12.3007H42.4232V11.5655H41.7115V6.51257Z" fill="#3F3D39"/>
<path d="M45.1539 3.50182H46.0173V6.39587H46.6124V5.67236H48.8992V6.39587H49.6109V7.10772H50.3343V12.3007H49.4942V7.23608H48.7709V6.51257H46.7291V7.23608H46.0173V12.3007H45.1539V3.50182Z" fill="#3F3D39"/>
<path d="M51.5361 10.842H50.801V7.10772H51.5361V6.39587H52.2594V5.67236H54.5463V6.39587H55.258V7.10772H55.9814V9.40663H51.6644V10.7253H52.3761V11.4371H54.4179V10.7253H55.1413V10.0018H55.9814V10.842H55.258V11.5655H54.5463V12.3007H52.2594V11.5655H51.5361V10.842ZM55.1413 8.55475V7.23608H54.4179V6.51257H52.3761V7.23608H51.6644V8.55475H55.1413Z" fill="#3F3D39"/>
<path d="M41.7114 28.5712H42.4465V27.8476H45.3283V25.8055H42.5748V27.2525H41.7114V25.6888H42.4465V24.9652H45.4567V25.6888H46.1684V30.73H46.8918V31.5936H46.0517V30.8584H44.7333V31.5936H42.4465V30.8584H41.7114V28.5712ZM44.605 30.73V30.0182H45.3283V28.6995H42.5748V30.73H44.605Z" fill="#3F3D39"/>
<path d="M47.1951 22.7947H48.0585V25.6887H48.6536V24.9652H50.9404V25.6887H51.6521V26.4006H52.3755V30.1349H51.6521V30.8584H50.9404V31.5936H48.6536V30.8584H48.0585V31.5936H47.1951V22.7947ZM48.7702 30.0182V30.73H50.8121V30.0182H51.5354V26.529H50.8121V25.8054H48.7702V26.529H48.0585V30.0182H48.7702Z" fill="#3F3D39"/>
<path d="M14.219 20.0602L4.74813 25.9479C2.68187 27.2321 -7.30237e-05 25.7574 -7.32352e-05 23.337L-7.42641e-05 11.561C-7.44756e-05 9.14056 2.68186 7.66515 4.74813 8.95004L14.219 14.8377C16.1604 16.0448 16.1604 18.8532 14.219 20.0602Z" fill="#FFD447"/>
<path d="M20.8494 20.0602L30.3204 25.9479C32.3866 27.2321 35.0686 25.7574 35.0686 23.337L35.0686 11.561C35.0686 9.14055 32.3866 7.66515 30.3204 8.95004L20.8494 14.8377C18.9081 16.0448 18.9081 18.8532 20.8494 20.0602Z" fill="#FFD447"/>
<path d="M14.9157 14.2266L9.1371 4.75078C7.87664 2.68346 9.32409 0.000139138 11.6997 0.000138827L23.2575 0.00013731C25.6331 0.000136999 27.0812 2.68345 25.8201 4.75078L20.0415 14.2266C18.8568 16.1689 16.1004 16.1689 14.9157 14.2266Z" fill="#FFD447"/>
<path d="M14.9157 20.8431L9.1371 30.3189C7.87664 32.3862 9.32409 35.0696 11.6997 35.0696L23.2575 35.0696C25.6331 35.0696 27.0812 32.3862 25.8201 30.3189L20.0415 20.8431C18.8568 18.9008 16.1004 18.9008 14.9157 20.8431Z" fill="#FFD447"/>
<path d="M89.1567 0V35.1516" stroke="#3F3D39" stroke-width="0.7989"/>
</svg>
